<svg width="21" height="20" viewBox="0 0 21 20" fill="none" xmlns="http://www.w3.org/2000/svg">
<g filter="url(#filter0_d_15:180)">
<path d="M14.3591 10.9423C14.3121 10.9906 14.1343 11.1973 13.9687 11.3673C12.9977 12.4364 10.4648 14.1864 9.13915 14.7206C8.93781 14.8064 8.4288 14.9881 8.15684 14.9998C7.89625 14.9998 7.64783 14.9398 7.41078 14.8181C7.11528 14.6481 6.87823 14.3806 6.74834 14.0648C6.66472 13.8456 6.53483 13.1898 6.53483 13.1781C6.40494 12.4606 6.3335 11.2948 6.3335 10.0064C6.3335 8.77892 6.40494 7.66059 6.51128 6.93226C6.52346 6.92059 6.65335 6.10559 6.79542 5.82642C7.05602 5.31642 7.56503 4.99976 8.10976 4.99976H8.15684C8.51161 5.01226 9.25767 5.32892 9.25767 5.34059C10.5119 5.87559 12.9864 7.53976 13.9808 8.64559C13.9808 8.64559 14.2609 8.92976 14.3827 9.10726C14.5727 9.36226 14.6668 9.67809 14.6668 9.99392C14.6668 10.3464 14.5605 10.6748 14.3591 10.9423Z" fill="white"/>
</g>
<defs>
<filter id="filter0_d_15:180" x="-0.499878" y="-0.000244141" width="22" height="22" filterUnits="userSpaceOnUse" color-interpolation-filters="sRGB">
<feFlood flood-opacity="0" result="BackgroundImageFix"/>
<feColorMatrix in="SourceAlpha" type="matrix" values="0 0 0 0 0 0 0 0 0 0 0 0 0 0 0 0 0 0 127 0" result="hardAlpha"/>
<feOffset dy="1"/>
<feGaussianBlur stdDeviation="0.5"/>
<feComposite in2="hardAlpha" operator="out"/>
<feColorMatrix type="matrix" values="0 0 0 0 0.505882 0 0 0 0 0.211765 0 0 0 0 0 0 0 0 0.15 0"/>
<feBlend mode="normal" in2="BackgroundImageFix" result="effect1_dropShadow_15:180"/>
<feBlend mode="normal" in="SourceGraphic" in2="effect1_dropShadow_15:180" result="shape"/>
</filter>
</defs>
</svg>
