<svg width="1440" height="589" viewBox="0 0 1440 589" fill="none" xmlns="http://www.w3.org/2000/svg">
<g filter="url(#filter0_i_49:303)">
<path d="M-129.446 151.5L368.5 132.5V352.5L-99.1683 416L-129.446 151.5Z" fill="#4B0362"/>
<path d="M148 139C148 215.768 85.7676 278 9.00005 278C-67.7675 278 -130 215.768 -130 139C-130 62.2329 -67.7675 0.000488281 9.00005 0.000488281C85.7676 0.000488281 148 62.2329 148 139Z" fill="#4B0362"/>
<path d="M274 160.5C274 209.378 234.377 249 185.5 249C136.623 249 97 209.378 97 160.5C97 111.623 136.623 72.0005 185.5 72.0005C234.377 72.0005 274 111.623 274 160.5Z" fill="#4B0362"/>
<path d="M518 337.5C518 397.423 469.423 446 409.5 446C349.577 446 301 397.423 301 337.5C301 277.578 349.577 229 409.5 229C469.423 229 518 277.578 518 337.5Z" fill="#4B0362"/>
<path d="M117 402.5C117 462.423 68.4229 511 8.50005 511C-51.4229 511 -100 462.423 -100 402.5C-100 342.578 -51.4229 294 8.50005 294C68.4229 294 117 342.578 117 402.5Z" fill="#4B0362"/>
<path d="M392 153C392 194.974 357.974 229 316 229C274.026 229 240 194.974 240 153C240 111.027 274.026 77.0005 316 77.0005C357.974 77.0005 392 111.027 392 153Z" fill="#4B0362"/>
<path d="M621 337C621 378.974 586.974 413 545 413C503.026 413 469 378.974 469 337C469 295.027 503.026 261 545 261C586.974 261 621 295.027 621 337Z" fill="#4B0362"/>
<path d="M212 381C212 422.974 177.974 457 136 457C94.0264 457 60 422.974 60 381C60 339.027 94.0264 305 136 305C177.974 305 212 339.027 212 381Z" fill="#4B0362"/>
<path d="M767 300C767 332.585 740.585 359 708 359C675.415 359 649 332.585 649 300C649 267.416 675.415 241 708 241C740.585 241 767 267.416 767 300Z" fill="#4B0362"/>
<path d="M572 229C572 290.856 521.856 341 460 341C398.144 341 348 290.856 348 229C348 167.145 398.144 117 460 117C521.856 117 572 167.145 572 229Z" fill="#4B0362"/>
<path d="M708 294C708 342.049 669.049 381 621 381C572.951 381 534 342.049 534 294C534 245.952 572.951 207 621 207C669.049 207 708 245.952 708 294Z" fill="#4B0362"/>
<path d="M361 392C361 440.049 322.049 479 274 479C225.951 479 187 440.049 187 392C187 343.952 225.951 305 274 305C322.049 305 361 343.952 361 392Z" fill="#4B0362"/>
<path d="M1567.05 404.278L1054.98 396.589L1046.89 176.738L1527.38 143.06L1567.05 404.278Z" fill="#4B0362"/>
<path d="M1290.25 426.965C1287.43 350.249 1347.33 285.772 1424.05 282.951C1500.77 280.13 1565.24 340.034 1568.06 416.75C1570.88 493.465 1510.98 557.942 1434.26 560.763C1357.55 563.584 1293.07 503.68 1290.25 426.965Z" fill="#4B0362"/>
<path d="M1163.55 410.109C1161.75 361.265 1199.89 320.213 1248.73 318.417C1297.58 316.621 1338.63 354.761 1340.43 403.605C1342.22 452.449 1304.08 493.501 1255.24 495.297C1206.39 497.093 1165.34 458.953 1163.55 410.109Z" fill="#4B0362"/>
<path d="M913.207 242.194C911.005 182.312 957.765 131.982 1017.65 129.781C1077.53 127.579 1127.86 174.338 1130.06 234.221C1132.26 294.103 1085.5 344.432 1025.62 346.634C965.738 348.836 915.409 302.077 913.207 242.194Z" fill="#4B0362"/>
<path d="M1311.55 162.503C1309.35 102.621 1356.11 52.2918 1415.99 50.09C1475.87 47.8881 1526.2 94.6475 1528.4 154.53C1530.6 214.412 1483.84 264.742 1423.96 266.943C1364.08 269.145 1313.75 222.386 1311.55 162.503Z" fill="#4B0362"/>
<path d="M1045.9 421.94C1044.36 379.994 1077.11 344.741 1119.06 343.198C1161 341.656 1196.26 374.409 1197.8 416.355C1199.34 458.3 1166.59 493.554 1124.64 495.096C1082.7 496.638 1047.44 463.885 1045.9 421.94Z" fill="#4B0362"/>
<path d="M810.295 246.478C808.753 204.533 841.506 169.28 883.451 167.737C925.396 166.195 960.65 198.948 962.192 240.893C963.735 282.839 930.981 318.092 889.036 319.635C847.091 321.177 811.837 288.424 810.295 246.478Z" fill="#4B0362"/>
<path d="M1217.4 187.48C1215.86 145.534 1248.61 110.281 1290.56 108.738C1332.5 107.196 1367.76 139.949 1369.3 181.895C1370.84 223.84 1338.09 259.093 1296.14 260.636C1254.2 262.178 1218.94 229.425 1217.4 187.48Z" fill="#4B0362"/>
<path d="M665.753 288.818C664.556 256.255 689.983 228.887 722.545 227.69C755.108 226.493 782.476 251.92 783.673 284.482C784.871 317.045 759.444 344.413 726.881 345.61C694.318 346.808 666.95 321.381 665.753 288.818Z" fill="#4B0362"/>
<path d="M863.23 352.605C860.957 290.791 909.225 238.838 971.039 236.565C1032.85 234.292 1084.81 282.56 1087.08 344.374C1089.35 406.188 1041.08 458.141 979.27 460.414C917.456 462.687 865.503 414.419 863.23 352.605Z" fill="#4B0362"/>
<path d="M724.934 292.646C723.168 244.63 760.662 204.274 808.678 202.508C856.695 200.743 897.051 238.236 898.816 286.253C900.582 334.269 863.088 374.625 815.072 376.391C767.055 378.156 726.699 340.663 724.934 292.646Z" fill="#4B0362"/>
<path d="M1068.1 181.962C1066.33 133.946 1103.83 93.5895 1151.84 91.824C1199.86 90.0585 1240.22 127.552 1241.98 175.569C1243.75 223.585 1206.25 263.941 1158.24 265.707C1110.22 267.472 1069.86 229.978 1068.1 181.962Z" fill="#4B0362"/>
</g>
<defs>
<filter id="filter0_i_49:303" x="-158" y="0.000488281" width="1726.16" height="564.858" filterUnits="userSpaceOnUse" color-interpolation-filters="sRGB">
<feFlood flood-opacity="0" result="BackgroundImageFix"/>
<feBlend mode="normal" in="SourceGraphic" in2="BackgroundImageFix" result="shape"/>
<feColorMatrix in="SourceAlpha" type="matrix" values="0 0 0 0 0 0 0 0 0 0 0 0 0 0 0 0 0 0 127 0" result="hardAlpha"/>
<feOffset dx="-28" dy="4"/>
<feGaussianBlur stdDeviation="23.5"/>
<feComposite in2="hardAlpha" operator="arithmetic" k2="-1" k3="1"/>
<feColorMatrix type="matrix" values="0 0 0 0 0.757895 0 0 0 0 0 0 0 0 0 1 0 0 0 0.28 0"/>
<feBlend mode="normal" in2="shape" result="effect1_innerShadow_49:303"/>
</filter>
</defs>
</svg>
