<svg width="1440" height="664" viewBox="0 0 1440 664" fill="none" xmlns="http://www.w3.org/2000/svg">
<g filter="url(#filter0_di_49:342)">
<path d="M-59.8506 215.047L390.498 180.016L408.18 380.726L-11.025 454.184L-59.8506 215.047Z" fill="#6B0770"/>
<path d="M192.796 184.561C198.966 254.598 147.192 316.375 77.1551 322.545C7.11865 328.715 -54.6587 276.941 -60.8286 206.904C-66.9984 136.868 -15.2242 75.0904 54.8122 68.9206C124.849 62.7508 186.626 114.525 192.796 184.561Z" fill="#6B0770"/>
<path d="M309.476 194.049C313.404 238.641 280.44 277.974 235.849 281.902C191.257 285.831 151.924 252.867 147.996 208.275C144.067 163.683 177.031 124.35 221.623 120.422C266.215 116.494 305.548 149.458 309.476 194.049Z" fill="#6B0770"/>
<path d="M546.307 335.92C551.123 390.588 510.709 438.81 456.041 443.626C401.372 448.442 353.15 408.029 348.334 353.36C343.518 298.691 383.932 250.469 438.6 245.653C493.269 240.837 541.491 281.251 546.307 335.92Z" fill="#6B0770"/>
<path d="M185.692 427.449C190.508 482.117 150.094 530.339 95.4252 535.155C40.7564 539.971 -7.46549 499.558 -12.2815 444.889C-17.0975 390.22 23.3161 341.998 77.9849 337.182C132.654 332.366 180.876 372.78 185.692 427.449Z" fill="#6B0770"/>
<path d="M416.527 177.724C419.9 216.017 391.592 249.794 353.299 253.168C315.005 256.541 281.228 228.233 277.854 189.94C274.481 151.646 302.789 117.869 341.082 114.495C379.376 111.122 413.153 139.43 416.527 177.724Z" fill="#6B0770"/>
<path d="M640.236 327.185C643.609 365.479 615.301 399.256 577.008 402.63C538.714 406.003 504.937 377.695 501.563 339.401C498.19 301.108 526.498 267.331 564.791 263.957C603.085 260.584 636.862 288.892 640.236 327.185Z" fill="#6B0770"/>
<path d="M270.634 400.199C274.007 438.492 245.699 472.269 207.406 475.643C169.112 479.016 135.335 450.708 131.961 412.415C128.588 374.121 156.896 340.344 195.189 336.97C233.483 333.597 267.26 361.905 270.634 400.199Z" fill="#6B0770"/>
<path d="M770.46 281.695C773.079 311.423 751.103 337.645 721.376 340.264C691.648 342.883 665.426 320.907 662.807 291.179C660.188 261.451 682.164 235.229 711.892 232.61C741.62 229.992 767.842 251.968 770.46 281.695Z" fill="#6B0770"/>
<path d="M586.852 232.593C591.824 289.025 550.106 338.803 493.674 343.774C437.242 348.745 387.464 307.028 382.493 250.596C377.521 194.164 419.239 144.386 475.671 139.415C532.103 134.444 581.881 176.161 586.852 232.593Z" fill="#6B0770"/>
<path d="M716.151 280.963C720.013 324.799 687.608 363.465 643.772 367.327C599.936 371.189 561.27 338.783 557.408 294.948C553.546 251.112 585.952 212.445 629.788 208.584C673.623 204.722 712.29 237.128 716.151 280.963Z" fill="#6B0770"/>
<path d="M407.453 398.259C411.315 442.095 378.91 480.761 335.074 484.623C291.238 488.484 252.572 456.079 248.71 412.243C244.848 368.407 277.254 329.741 321.089 325.879C364.925 322.018 403.592 354.423 407.453 398.259Z" fill="#6B0770"/>
<path d="M1578.17 363.987L1080.36 456.787L1043.46 239.903L1503.83 107.825L1578.17 363.987Z" fill="#6B0770"/>
<path d="M1306.62 422.354C1293.75 346.674 1344.66 274.886 1420.34 262.011C1496.02 249.137 1567.81 300.051 1580.68 375.731C1593.56 451.411 1542.64 523.199 1466.96 536.074C1391.28 548.948 1319.49 498.034 1306.62 422.354Z" fill="#6B0770"/>
<path d="M1178.8 422.29C1170.6 374.105 1203.02 328.398 1251.2 320.201C1299.39 312.004 1345.09 344.42 1353.29 392.605C1361.49 440.79 1329.07 486.497 1280.89 494.694C1232.7 502.891 1187 470.475 1178.8 422.29Z" fill="#6B0770"/>
<path d="M908.57 288.717C898.521 229.643 938.263 173.607 997.337 163.558C1056.41 153.508 1112.45 193.251 1122.5 252.325C1132.55 311.399 1092.8 367.435 1033.73 377.484C974.655 387.534 918.62 347.792 908.57 288.717Z" fill="#6B0770"/>
<path d="M1292.99 157.387C1282.94 98.3129 1322.68 42.277 1381.76 32.2275C1440.83 22.1779 1496.87 61.9203 1506.92 120.994C1516.97 180.069 1477.22 236.104 1418.15 246.154C1359.07 256.204 1303.04 216.461 1292.99 157.387Z" fill="#6B0770"/>
<path d="M1063.73 449.473C1056.69 408.094 1084.53 368.843 1125.91 361.804C1167.28 354.764 1206.54 382.602 1213.57 423.981C1220.61 465.361 1192.78 504.611 1151.4 511.651C1110.02 518.69 1070.77 490.852 1063.73 449.473Z" fill="#6B0770"/>
<path d="M807.113 306.484C800.074 265.105 827.912 225.854 869.291 218.815C910.67 211.775 949.921 239.613 956.961 280.992C964 322.372 936.162 361.623 894.783 368.662C853.404 375.701 814.153 347.863 807.113 306.484Z" fill="#6B0770"/>
<path d="M1202.94 194.515C1195.9 153.136 1223.74 113.885 1265.12 106.845C1306.5 99.8061 1345.75 127.644 1352.79 169.023C1359.83 210.402 1331.99 249.653 1290.61 256.693C1249.23 263.732 1209.98 235.894 1202.94 194.515Z" fill="#6B0770"/>
<path d="M669.386 367.445C663.922 335.322 685.533 304.851 717.656 299.386C749.779 293.922 780.25 315.533 785.715 347.656C791.18 379.779 769.569 410.25 737.446 415.715C705.322 421.18 674.851 399.569 669.386 367.445Z" fill="#6B0770"/>
<path d="M873.531 404.737C863.157 343.757 904.182 285.914 965.162 275.54C1026.14 265.166 1083.98 306.19 1094.36 367.17C1104.73 428.15 1063.71 485.994 1002.73 496.367C941.748 506.741 883.905 465.717 873.531 404.737Z" fill="#6B0770"/>
<path d="M728.557 363.466C720.499 316.097 752.366 271.165 799.734 263.107C847.102 255.049 892.034 286.916 900.093 334.284C908.151 381.653 876.284 426.585 828.915 434.643C781.547 442.701 736.615 410.834 728.557 363.466Z" fill="#6B0770"/>
<path d="M1054.21 208.659C1046.15 161.291 1078.02 116.359 1125.38 108.301C1172.75 100.243 1217.68 132.11 1225.74 179.478C1233.8 226.846 1201.93 271.778 1154.56 279.836C1107.2 287.894 1062.26 256.027 1054.21 208.659Z" fill="#6B0770"/>
</g>
<defs>
<filter id="filter0_di_49:342" x="-84.3274" y="0.67334" width="1690" height="553.391" filterUnits="userSpaceOnUse" color-interpolation-filters="sRGB">
<feFlood flood-opacity="0" result="BackgroundImageFix"/>
<feColorMatrix in="SourceAlpha" type="matrix" values="0 0 0 0 0 0 0 0 0 0 0 0 0 0 0 0 0 0 127 0" result="hardAlpha"/>
<feOffset dy="-7"/>
<feGaussianBlur stdDeviation="11.5"/>
<feComposite in2="hardAlpha" operator="out"/>
<feColorMatrix type="matrix" values="0 0 0 0 0.262105 0 0 0 0 0 0 0 0 0 0.345833 0 0 0 0.7 0"/>
<feBlend mode="normal" in2="BackgroundImageFix" result="effect1_dropShadow_49:342"/>
<feBlend mode="normal" in="SourceGraphic" in2="effect1_dropShadow_49:342" result="shape"/>
<feColorMatrix in="SourceAlpha" type="matrix" values="0 0 0 0 0 0 0 0 0 0 0 0 0 0 0 0 0 0 127 0" result="hardAlpha"/>
<feOffset dy="4"/>
<feGaussianBlur stdDeviation="22"/>
<feComposite in2="hardAlpha" operator="arithmetic" k2="-1" k3="1"/>
<feColorMatrix type="matrix" values="0 0 0 0 0.615686 0 0 0 0 0.0901961 0 0 0 0 0.509804 0 0 0 0.52 0"/>
<feBlend mode="normal" in2="shape" result="effect2_innerShadow_49:342"/>
</filter>
</defs>
</svg>
