<svg width="372" height="56" viewBox="0 0 372 29" fill="none" xmlns="http://www.w3.org/2000/svg">
<g clip-path="url(#clip0_701_60215)">
<path d="M371.999 0.240723H326.677V9.06456H341.241V28.8881H357.435V9.06456H371.999V0.240723Z" fill="#DF0002"/>
<path d="M138.786 0.00439453L103.002 0.0129948V28.6561H119.202V8.94004H138.786V0.00439453Z" fill="#DF0002"/>
<path d="M101.227 7.66281V0L62.9395 0.0129004V28.656H101.227V20.9932H79.1343V17.5488H101.227V11.1029H79.1343V7.66281H101.227Z" fill="#DF0002"/>
<path d="M36.1882 0.0129395L30.7757 15.1537L25.3633 0.0129395H0V28.656H14.2785V8.54867L22.1098 28.656H39.4416L45.6164 12.7886V28.656H59.8992V0.0129395H36.1882Z" fill="#DF0002"/>
<path d="M215.953 0.0129395L210.541 15.1537L205.128 0.0129395H179.765V28.656H194.044V8.54867L201.875 28.656H219.207L225.382 12.7886V28.656H239.664V0.0129395H215.953Z" fill="#DF0002"/>
<path d="M270.334 28.6517H288.76L274.669 0H251.15L237.059 28.6474H255.485L257.482 23.2206H268.337L270.334 28.6517ZM260.301 15.5707L262.912 8.49273L265.539 15.5707H260.301Z" fill="#DF0002"/>
<path d="M139.192 18.1811H151.375L155.254 6.39875L159.134 18.1811H171.317L162.2 25.0226L163.171 29.0002H181.103L167.016 0.352783H143.493L129.401 29.0002H147.338L148.305 25.0226L139.192 18.1811Z" fill="#DF0002"/>
<path d="M321.772 0.098877H287.372V28.7377H303.554V20.8899H321.755C326.865 20.8899 330.97 16.2372 330.97 10.4923C330.97 4.7473 326.861 0.098877 321.772 0.098877ZM310.968 14.4398H303.571V6.59205H310.968C311.998 6.59205 312.986 7.00523 313.714 7.74069C314.443 8.47616 314.852 9.47366 314.852 10.5138C314.852 11.5539 314.443 12.5514 313.714 13.2868C312.986 14.0223 311.998 14.4355 310.968 14.4355V14.4398Z" fill="#DF0002"/>
</g>
<defs>
<clipPath id="clip0_701_60215">
<rect width="372" height="56" fill="white"/>
</clipPath>
</defs>
</svg>
