<svg width="201" height="56" viewBox="0 0 201 56" fill="none" xmlns="http://www.w3.org/2000/svg">
<path d="M49.668 24.7662C49.668 29.1834 48.4593 33.5203 46.203 37.2951C46.203 37.2951 37.5808 40.347 24.7684 40.347C11.9559 40.347 3.41427 37.2951 3.41427 37.2951C-3.51573 25.489 0.432758 10.3098 12.2782 3.4029C24.1237 -3.50403 39.3536 0.431317 46.2836 12.2374C48.5399 16.0121 49.668 20.349 49.668 24.7662Z" fill="#FF8200"/>
<path d="M35.518 26.8704H34.1642L34.1561 9.9404C34.1561 9.56293 33.8499 9.24971 33.4631 9.24971C33.4631 9.24971 20.143 9.24971 19.7965 9.24168C19.45 9.23364 19.1438 9.26577 18.8779 9.34608C18.612 9.41836 18.3944 9.5549 18.2413 9.73962C18.0882 9.92434 18.0076 10.2135 18.0076 10.599V12.4221C18.0076 13.0325 17.9996 13.6991 17.9754 14.4138C17.9593 15.1286 17.9109 18.6945 17.8465 19.4414C17.7739 20.1884 17.6772 20.9192 17.5403 21.6581C17.4113 22.3889 17.226 23.0796 17.0004 23.7382C16.7747 24.3968 16.4927 24.9991 16.1462 25.5372C15.8722 25.9709 15.5579 26.3484 15.2034 26.6616C15.0583 26.7901 14.873 26.8704 14.6716 26.9025C14.4459 26.9347 14.2606 26.9989 14.1075 27.1033C13.898 27.2399 13.7932 27.537 13.7932 27.9868V34.0584V34.0665C13.7932 34.4439 14.0994 34.7572 14.4862 34.7572H18.5395C18.9182 34.7572 19.2325 34.4439 19.2325 34.0665V34.0584V31.2635H30.7153V34.0584V34.0665C30.7153 34.4439 31.0215 34.7572 31.4083 34.7572H35.5019C35.8806 34.7572 36.1949 34.4439 36.1949 34.0665V34.0584V27.5772V27.5691C36.211 27.1756 35.8967 26.8704 35.518 26.8704ZM28.7169 26.8704H20.9972C21.4001 26.2922 21.7305 25.6095 21.9964 24.8064C22.2623 24.0032 22.4638 23.184 22.6169 22.3407C22.77 21.4975 22.8747 20.6702 22.9392 19.8671C23.0037 19.064 23.0359 15.5222 23.0359 14.9198V13.6991H28.725V26.8704H28.7169Z" fill="white"/>
<path d="M4.62305 39.062C12.52 50.2255 27.9917 52.8759 39.1925 45.0052C41.5294 43.3989 43.5439 41.3911 45.1555 39.062C45.1555 39.062 35.0828 42.5155 24.849 42.5155C14.6151 42.5155 4.62305 39.062 4.62305 39.062Z" fill="#78BE20"/>
<path d="M24.849 42.5155C35.0829 42.5155 45.1555 39.062 45.1555 39.062C39.1925 43.3989 32.1013 45.8083 24.6878 45.9689C17.4355 45.8886 10.3443 43.4792 4.54248 39.1423C4.54248 39.062 14.6152 42.5155 24.849 42.5155Z" fill="#97D700"/>
<path d="M93.6978 32.0104H91.9734C91.9734 32.0104 91.9573 10.35 91.9573 10.3419C91.9573 9.85203 91.5624 9.45849 91.0709 9.45849C91.0709 9.45849 74.0279 9.45849 73.5847 9.45046C73.1415 9.44243 72.7466 9.48259 72.4082 9.57896C72.0617 9.67534 71.7877 9.844 71.5863 10.0849C71.3848 10.3259 71.2881 10.6953 71.2881 11.1933V13.5223C71.2881 14.3094 71.272 15.1527 71.2478 16.0683C71.2237 16.9838 71.1672 21.5456 71.0786 22.5013C70.99 23.4571 70.861 24.3967 70.6918 25.3364C70.5226 26.2761 70.2889 27.1595 69.9988 28.0028C69.7087 28.8461 69.3461 29.6091 68.911 30.3078C68.5645 30.87 68.1616 31.3438 67.7022 31.7454C67.5088 31.914 67.2752 32.0185 67.0254 32.0586C66.7433 32.0988 66.5016 32.1871 66.3082 32.3156C66.0423 32.4923 65.9053 32.8698 65.9053 33.44V41.2143V41.2223C65.9053 41.7123 66.3001 42.1058 66.7917 42.1058H71.9811C72.4727 42.1058 72.8675 41.7123 72.8675 41.2223V41.2143V37.6404H87.5575V41.2143V41.2223C87.5575 41.7123 87.9524 42.1058 88.4439 42.1058H93.6817C94.1733 42.1058 94.5681 41.7123 94.5681 41.2223V41.2143V32.9019V32.8939C94.5842 32.404 94.1894 32.0104 93.6978 32.0104ZM84.995 32.0104H75.1157C75.6315 31.2715 76.0585 30.3961 76.3889 29.3681C76.7274 28.3401 76.9933 27.288 77.1867 26.2118C77.3801 25.1356 77.5171 24.0755 77.5976 23.0394C77.6782 22.0034 77.7185 17.4737 77.7185 16.7108V15.1527H84.995V32.0104Z" fill="#FF8200"/>
<path d="M140.645 21.5537L149.75 11.2736C150.153 10.7917 150.073 10.1492 149.67 9.74765C149.509 9.58703 149.186 9.50671 148.944 9.50671H143.384C143.062 9.50671 142.82 9.66734 142.579 9.90828L132.989 21.0718V10.6311C132.989 9.98859 132.506 9.50671 131.861 9.50671H127.187C126.543 9.50671 126.059 9.98859 126.059 10.6311V37.2951C126.059 37.9376 126.543 38.4195 127.187 38.4195H131.861C132.506 38.4195 132.989 37.9376 132.989 37.2951V29.7456L136.051 26.3725L142.901 37.6966C143.062 38.0179 143.465 38.2588 143.868 38.2588H149.186C149.831 38.2588 150.314 37.7769 150.314 37.1344C150.314 36.8935 150.234 36.7329 150.153 36.5723L140.645 21.5537Z" fill="#FF8200"/>
<path d="M171.999 30.3961C171.676 30.1953 171.266 30.1793 170.927 30.356C168.631 31.5285 166.132 32.1229 163.497 32.1229C158.638 32.1229 155.109 28.5971 155.109 23.7301C155.109 18.7909 158.598 15.3374 163.602 15.3374C166.02 15.3374 168.357 15.9237 170.734 17.1364C171.072 17.3131 171.483 17.297 171.805 17.0963C172.128 16.8955 172.329 16.5421 172.329 16.1646V11.8438C172.329 11.4502 172.12 11.0888 171.773 10.8961C170.935 10.4222 167.849 8.87219 163.417 8.87219C154.746 8.87219 148.211 15.2651 148.211 23.7382C148.211 32.2112 154.698 38.6041 163.312 38.6041C168.3 38.6041 171.604 36.8212 171.967 36.6124C172.313 36.4196 172.523 36.0582 172.523 35.6647V31.3438C172.523 30.9422 172.321 30.5889 171.999 30.3961Z" fill="#FF8200"/>
<path d="M99.3867 9.42635H103.98C104.624 9.42635 105.108 9.90823 105.108 10.5507V24.6859L120.096 9.42635C120.338 9.18542 120.58 9.1051 120.902 9.1051H120.983C121.627 9.1051 122.111 9.58698 122.111 10.2295V37.2147C122.111 37.8572 121.627 38.3391 120.983 38.3391H116.389C115.825 38.3391 115.342 37.8572 115.342 37.2147V22.9993L100.354 38.3391C100.112 38.58 99.8702 38.6603 99.5478 38.6603H99.4673C98.8226 38.6603 98.3391 38.1785 98.3391 37.536V10.5507C98.3391 9.90823 98.8226 9.42635 99.3867 9.42635Z" fill="#FF8200"/>
<path d="M177.47 9.42635H182.063C182.708 9.42635 183.191 9.90823 183.191 10.5507V24.6859L198.18 9.42635C198.421 9.18542 198.663 9.1051 198.985 9.1051H199.147C199.791 9.1051 200.275 9.58698 200.275 10.2295V37.2147C200.275 37.8572 199.791 38.3391 199.147 38.3391H194.553C193.909 38.3391 193.425 37.8572 193.425 37.2147V22.9993L178.437 38.3391C178.195 38.58 177.954 38.6603 177.631 38.6603H177.551C176.906 38.6603 176.423 38.1785 176.423 37.536V10.5507C176.342 9.90823 176.826 9.42635 177.47 9.42635Z" fill="#FF8200"/>
<path d="M71.5218 47.6552V54.2328H70.0391V48.908H67.5813V54.2328H66.0986V47.6552H71.5218Z" fill="#78BE20"/>
<path d="M77.6056 51.7434C77.6056 52.1289 77.5573 52.4822 77.4606 52.7955C77.3639 53.1087 77.2269 53.3817 77.0415 53.6147C76.8562 53.8395 76.6306 54.0162 76.3566 54.1447C76.0826 54.2732 75.7683 54.3375 75.4138 54.3375C75.2123 54.3375 75.0351 54.3214 74.8578 54.2813C74.6886 54.2411 74.5193 54.1929 74.3662 54.1206V56H72.948V49.4223C73.0769 49.3822 73.222 49.35 73.3831 49.3099C73.5443 49.2777 73.7216 49.2456 73.8989 49.2215C74.0761 49.1974 74.2615 49.1733 74.4549 49.1573C74.6402 49.1412 74.8175 49.1332 74.9948 49.1332C75.4057 49.1332 75.7764 49.1974 76.0987 49.3179C76.4211 49.4384 76.695 49.6151 76.9207 49.8399C77.1463 50.0648 77.3155 50.3379 77.4283 50.6591C77.5411 50.9804 77.6056 51.3418 77.6056 51.7434ZM76.1551 51.7755C76.1551 51.3418 76.0584 50.9884 75.857 50.7234C75.6636 50.4583 75.3654 50.3298 74.9786 50.3298C74.8497 50.3298 74.7369 50.3379 74.6241 50.3459C74.5193 50.3539 74.4307 50.37 74.3582 50.378V52.932C74.4468 52.9882 74.5596 53.0364 74.7047 53.0766C74.8497 53.1167 74.9948 53.1328 75.1398 53.1328C75.8167 53.1328 76.1551 52.683 76.1551 51.7755Z" fill="#78BE20"/>
<path d="M83.3752 51.7354C83.3752 52.1289 83.3188 52.4903 83.206 52.8116C83.0932 53.1409 82.9239 53.4139 82.7144 53.6468C82.4969 53.8797 82.239 54.0564 81.9408 54.1849C81.6427 54.3134 81.3042 54.3777 80.9255 54.3777C80.5548 54.3777 80.2245 54.3134 79.9182 54.1849C79.6201 54.0564 79.3542 53.8797 79.1447 53.6468C78.9271 53.4139 78.7579 53.1409 78.637 52.8116C78.5161 52.4823 78.4597 52.1289 78.4597 51.7354C78.4597 51.3418 78.5242 50.9885 78.6451 50.6592C78.7659 50.3379 78.9432 50.0649 79.1608 49.832C79.3783 49.6071 79.6362 49.4304 79.9424 49.3019C80.2406 49.1734 80.571 49.1091 80.9255 49.1091C81.2881 49.1091 81.6185 49.1734 81.9167 49.3019C82.2148 49.4304 82.4807 49.6071 82.6902 49.832C82.9078 50.0568 83.077 50.3379 83.1979 50.6592C83.3107 50.9804 83.3752 51.3418 83.3752 51.7354ZM81.9247 51.7354C81.9247 51.3017 81.8361 50.9563 81.6588 50.7074C81.4815 50.4584 81.2317 50.3299 80.9094 50.3299C80.5871 50.3299 80.3373 50.4584 80.16 50.7074C79.9827 50.9563 79.8941 51.3017 79.8941 51.7354C79.8941 52.1691 79.9827 52.5224 80.16 52.7714C80.3373 53.0284 80.5871 53.1569 80.9094 53.1569C81.2317 53.1569 81.4815 53.0284 81.6588 52.7714C81.8441 52.5144 81.9247 52.1691 81.9247 51.7354Z" fill="#78BE20"/>
<path d="M84.2214 51.7433C84.2214 51.3819 84.2778 51.0446 84.3987 50.7233C84.5196 50.4021 84.6888 50.129 84.9064 49.8881C85.132 49.6471 85.3979 49.4624 85.7122 49.3259C86.0265 49.1893 86.3891 49.1171 86.8 49.1171C87.066 49.1171 87.3077 49.1412 87.5333 49.1893C87.759 49.2375 87.9685 49.3018 88.178 49.3901L87.8798 50.5225C87.7429 50.4744 87.5978 50.4262 87.4447 50.386C87.2835 50.3459 87.1063 50.3298 86.9129 50.3298C86.4938 50.3298 86.1796 50.4583 85.9781 50.7153C85.7767 50.9723 85.6719 51.3176 85.6719 51.7433C85.6719 52.1931 85.7686 52.5384 85.962 52.7874C86.1554 53.0364 86.4938 53.1568 86.9773 53.1568C87.1465 53.1568 87.3319 53.1408 87.5333 53.1086C87.7267 53.0765 87.9121 53.0283 88.0732 52.956L88.2747 54.1125C88.1055 54.1848 87.904 54.241 87.6542 54.2892C87.4044 54.3374 87.1304 54.3615 86.8323 54.3615C86.373 54.3615 85.9781 54.2973 85.6477 54.1607C85.3173 54.0242 85.0434 53.8395 84.8339 53.6066C84.6243 53.3737 84.4632 53.0926 84.3665 52.7793C84.2698 52.4581 84.2214 52.1127 84.2214 51.7433Z" fill="#78BE20"/>
<path d="M93.3593 50.4021H91.7557V54.2411H90.3375V50.4021H88.7339V49.2456H93.3512V50.4021H93.3593Z" fill="#78BE20"/>
<path d="M98.8952 51.7354C98.8952 52.1289 98.8388 52.4903 98.726 52.8116C98.6132 53.1409 98.4439 53.4139 98.2344 53.6468C98.0169 53.8797 97.759 54.0564 97.4609 54.1849C97.1627 54.3134 96.8243 54.3777 96.4455 54.3777C96.0749 54.3777 95.7445 54.3134 95.4383 54.1849C95.1401 54.0564 94.8742 53.8797 94.6647 53.6468C94.4471 53.4139 94.2779 53.1409 94.157 52.8116C94.0361 52.4823 93.9797 52.1289 93.9797 51.7354C93.9797 51.3418 94.0442 50.9885 94.1651 50.6592C94.2859 50.3379 94.4632 50.0649 94.6808 49.832C94.8984 49.6071 95.1562 49.4304 95.4624 49.3019C95.7606 49.1734 96.091 49.1091 96.4455 49.1091C96.8081 49.1091 97.1385 49.1734 97.4367 49.3019C97.7348 49.4304 98.0007 49.6071 98.2103 49.832C98.4278 50.0568 98.5971 50.3379 98.7179 50.6592C98.8307 50.9804 98.8952 51.3418 98.8952 51.7354ZM97.4447 51.7354C97.4447 51.3017 97.3561 50.9563 97.1788 50.7074C97.0015 50.4584 96.7517 50.3299 96.4294 50.3299C96.1071 50.3299 95.8573 50.4584 95.68 50.7074C95.5027 50.9563 95.4141 51.3017 95.4141 51.7354C95.4141 52.1691 95.5027 52.5224 95.68 52.7714C95.8573 53.0284 96.1071 53.1569 96.4294 53.1569C96.7517 53.1569 97.0015 53.0284 97.1788 52.7714C97.3561 52.5144 97.4447 52.1691 97.4447 51.7354Z" fill="#78BE20"/>
<path d="M101.087 53.4861C101.087 53.7672 100.998 53.9841 100.813 54.1367C100.628 54.2893 100.426 54.3615 100.201 54.3615C99.975 54.3615 99.7655 54.2893 99.5882 54.1367C99.4109 53.9841 99.3142 53.7672 99.3142 53.4861C99.3142 53.205 99.4028 52.9882 99.5882 52.8356C99.7735 52.683 99.975 52.6107 100.201 52.6107C100.426 52.6107 100.636 52.683 100.813 52.8356C100.99 52.9882 101.087 53.205 101.087 53.4861Z" fill="#78BE20"/>
<path d="M106.381 47.5831C107.364 47.5831 108.122 47.7598 108.646 48.0971C109.169 48.4425 109.435 49.0047 109.435 49.7917C109.435 50.5868 109.169 51.1571 108.638 51.5024C108.106 51.8558 107.34 52.0325 106.349 52.0325H105.882V54.2331H104.399V47.7518C104.721 47.6875 105.068 47.6474 105.43 47.6153C105.793 47.5992 106.107 47.5831 106.381 47.5831ZM106.478 48.844C106.373 48.844 106.26 48.844 106.156 48.8521C106.051 48.8601 105.962 48.8681 105.882 48.8681V50.7635H106.349C106.865 50.7635 107.252 50.6912 107.509 50.5547C107.767 50.4182 107.904 50.1532 107.904 49.7757C107.904 49.591 107.872 49.4384 107.808 49.3179C107.743 49.1974 107.646 49.1011 107.517 49.0288C107.397 48.9565 107.243 48.9083 107.066 48.8762C106.889 48.8601 106.687 48.844 106.478 48.844Z" fill="#78BE20"/>
<path d="M112.506 52.4662C112.304 52.7633 112.119 53.0605 111.958 53.3657C111.796 53.6628 111.643 53.96 111.498 54.2411H110.048C110.233 53.8315 110.419 53.454 110.612 53.1087C110.805 52.7633 110.983 52.4742 111.168 52.2252C110.902 52.0887 110.684 51.904 110.531 51.6871C110.37 51.4703 110.29 51.1972 110.29 50.8679C110.29 50.3138 110.491 49.8801 110.894 49.5829C111.297 49.2858 111.853 49.1332 112.562 49.1332C112.723 49.1332 112.9 49.1412 113.094 49.1492C113.287 49.1653 113.481 49.1814 113.674 49.2055C113.867 49.2296 114.045 49.2537 114.222 49.2858C114.399 49.3179 114.544 49.342 114.665 49.3741V54.225H113.247V52.4501H112.506V52.4662ZM113.239 50.2576C113.174 50.2495 113.078 50.2415 112.941 50.2335C112.812 50.2254 112.691 50.2174 112.594 50.2174C112.248 50.2174 112.006 50.2736 111.877 50.3941C111.748 50.5146 111.684 50.6591 111.684 50.8438C111.684 50.9563 111.708 51.0527 111.756 51.133C111.805 51.2133 111.877 51.2775 111.958 51.3257C112.038 51.3739 112.135 51.406 112.232 51.4221C112.336 51.4382 112.433 51.4542 112.538 51.4542H113.223V50.2576H113.239Z" fill="#78BE20"/>
<path d="M115.503 53.0765H116.124C116.301 52.8597 116.438 52.5947 116.535 52.2734C116.631 51.9522 116.704 51.6148 116.744 51.2615C116.784 50.9001 116.809 50.5467 116.817 50.1933C116.825 49.8399 116.825 49.5187 116.825 49.2456H120.733V53.0846H121.579V55.6707H120.37V54.2491H116.712V55.6707H115.503V53.0765ZM119.315 53.0765V50.4021H118.154C118.138 50.627 118.13 50.8519 118.114 51.0928C118.098 51.3338 118.066 51.5667 118.025 51.7915C117.985 52.0244 117.929 52.2493 117.856 52.4742C117.784 52.6991 117.695 52.8999 117.582 53.0846H119.315V53.0765Z" fill="#78BE20"/>
<path d="M127.115 51.7354C127.115 52.1289 127.059 52.4903 126.946 52.8116C126.833 53.1409 126.664 53.4139 126.454 53.6468C126.237 53.8797 125.979 54.0564 125.681 54.1849C125.382 54.3134 125.044 54.3777 124.665 54.3777C124.295 54.3777 123.964 54.3134 123.658 54.1849C123.36 54.0564 123.094 53.8797 122.884 53.6468C122.667 53.4139 122.498 53.1409 122.377 52.8116C122.256 52.4823 122.199 52.1289 122.199 51.7354C122.199 51.3418 122.264 50.9885 122.385 50.6592C122.506 50.3379 122.683 50.0649 122.901 49.832C123.118 49.6071 123.376 49.4304 123.682 49.3019C123.98 49.1734 124.311 49.1091 124.665 49.1091C125.028 49.1091 125.358 49.1734 125.656 49.3019C125.955 49.4304 126.22 49.6071 126.43 49.832C126.648 50.0568 126.817 50.3379 126.938 50.6592C127.059 50.9804 127.115 51.3418 127.115 51.7354ZM125.673 51.7354C125.673 51.3017 125.584 50.9563 125.407 50.7074C125.229 50.4584 124.98 50.3299 124.657 50.3299C124.335 50.3299 124.085 50.4584 123.908 50.7074C123.731 50.9563 123.642 51.3017 123.642 51.7354C123.642 52.1691 123.731 52.5224 123.908 52.7714C124.085 53.0284 124.335 53.1569 124.657 53.1569C124.98 53.1569 125.229 53.0284 125.407 52.7714C125.584 52.5144 125.673 52.1691 125.673 51.7354Z" fill="#78BE20"/>
<path d="M129.613 51.3579C129.597 51.5827 129.589 51.8237 129.573 52.0807C129.556 52.3377 129.548 52.6027 129.54 52.8677C129.532 53.1328 129.524 53.3817 129.508 53.6227C129.5 53.8636 129.492 54.0644 129.484 54.2491H128.106C128.122 53.9038 128.138 53.5103 128.17 53.0685C128.203 52.6348 128.235 52.1851 128.267 51.7353C128.299 51.2856 128.34 50.8439 128.38 50.4102C128.42 49.9765 128.461 49.591 128.501 49.2537H129.685C129.959 49.6954 130.209 50.1532 130.443 50.627C130.676 51.1009 130.91 51.6229 131.168 52.1931C131.434 51.5827 131.7 51.0286 131.95 50.5065C132.208 49.9925 132.433 49.5749 132.635 49.2537H133.835C133.876 49.599 133.924 49.9845 133.964 50.4102C134.005 50.8439 134.045 51.2856 134.077 51.7353C134.109 52.1851 134.142 52.6348 134.166 53.0685C134.19 53.5022 134.206 53.8958 134.222 54.2491H132.812C132.796 53.7512 132.78 53.2613 132.756 52.7714C132.731 52.2815 132.715 51.8076 132.691 51.3579L131.643 53.6628H130.66L129.613 51.3579Z" fill="#78BE20"/>
<path d="M136.833 53.4861C136.833 53.7672 136.744 53.9841 136.559 54.1367C136.382 54.2812 136.172 54.3615 135.947 54.3615C135.721 54.3615 135.512 54.2893 135.334 54.1367C135.157 53.9921 135.06 53.7672 135.06 53.4861C135.06 53.205 135.149 52.9882 135.334 52.8356C135.512 52.691 135.721 52.6107 135.947 52.6107C136.172 52.6107 136.382 52.683 136.559 52.8356C136.744 52.9882 136.833 53.205 136.833 53.4861Z" fill="#78BE20"/>
<path d="M145.576 47.6554V54.233H144.094V48.9083H141.636V54.233H140.153V47.6554H145.576Z" fill="#78BE20"/>
<path d="M151.684 51.7354C151.684 52.1289 151.628 52.4903 151.515 52.8116C151.402 53.1409 151.233 53.4139 151.024 53.6468C150.806 53.8797 150.548 54.0564 150.25 54.1849C149.952 54.3134 149.613 54.3777 149.235 54.3777C148.864 54.3777 148.534 54.3134 148.227 54.1849C147.929 54.0564 147.663 53.8797 147.454 53.6468C147.236 53.4139 147.067 53.1409 146.946 52.8116C146.825 52.4823 146.769 52.1289 146.769 51.7354C146.769 51.3418 146.833 50.9885 146.954 50.6592C147.075 50.3379 147.252 50.0649 147.47 49.832C147.687 49.6071 147.945 49.4304 148.252 49.3019C148.55 49.1734 148.88 49.1091 149.235 49.1091C149.597 49.1091 149.928 49.1734 150.226 49.3019C150.524 49.4304 150.79 49.6071 150.999 49.832C151.217 50.0568 151.386 50.3379 151.507 50.6592C151.62 50.9804 151.684 51.3418 151.684 51.7354ZM150.234 51.7354C150.234 51.3017 150.145 50.9563 149.968 50.7074C149.791 50.4584 149.541 50.3299 149.218 50.3299C148.896 50.3299 148.646 50.4584 148.469 50.7074C148.292 50.9563 148.203 51.3017 148.203 51.7354C148.203 52.1691 148.292 52.5224 148.469 52.7714C148.646 53.0284 148.896 53.1569 149.218 53.1569C149.541 53.1569 149.791 53.0284 149.968 52.7714C150.145 52.5144 150.234 52.1691 150.234 51.7354Z" fill="#78BE20"/>
<path d="M152.458 50.7635H155.222V52.0486H152.458V50.7635Z" fill="#78BE20"/>
<path d="M156.108 51.7433C156.108 51.3819 156.165 51.0446 156.285 50.7233C156.406 50.4021 156.576 50.129 156.793 49.8881C157.019 49.6471 157.285 49.4624 157.599 49.3259C157.913 49.1893 158.276 49.1171 158.687 49.1171C158.953 49.1171 159.194 49.1412 159.42 49.1893C159.646 49.2375 159.855 49.3018 160.065 49.3901L159.767 50.5225C159.63 50.4744 159.485 50.4262 159.331 50.386C159.17 50.3459 158.993 50.3298 158.8 50.3298C158.381 50.3298 158.066 50.4583 157.865 50.7153C157.655 50.9723 157.559 51.3176 157.559 51.7433C157.559 52.1931 157.655 52.5384 157.849 52.7874C158.042 53.0364 158.381 53.1568 158.864 53.1568C159.033 53.1568 159.219 53.1408 159.42 53.1086C159.613 53.0765 159.799 53.0283 159.96 52.956L160.161 54.1125C159.992 54.1848 159.791 54.241 159.541 54.2892C159.291 54.3374 159.017 54.3615 158.719 54.3615C158.26 54.3615 157.865 54.2973 157.534 54.1607C157.204 54.0242 156.93 53.8395 156.721 53.6066C156.511 53.3737 156.35 53.0926 156.253 52.7793C156.156 52.4581 156.108 52.1127 156.108 51.7433Z" fill="#78BE20"/>
<path d="M165.552 51.7354C165.552 52.1289 165.496 52.4903 165.383 52.8116C165.27 53.1409 165.101 53.4139 164.891 53.6468C164.674 53.8797 164.416 54.0564 164.118 54.1849C163.82 54.3134 163.481 54.3777 163.103 54.3777C162.732 54.3777 162.401 54.3134 162.095 54.1849C161.797 54.0564 161.531 53.8797 161.322 53.6468C161.104 53.4139 160.935 53.1409 160.814 52.8116C160.693 52.4823 160.637 52.1289 160.637 51.7354C160.637 51.3418 160.701 50.9885 160.822 50.6592C160.943 50.3379 161.12 50.0649 161.338 49.832C161.555 49.6071 161.813 49.4304 162.119 49.3019C162.418 49.1734 162.748 49.1091 163.103 49.1091C163.465 49.1091 163.796 49.1734 164.094 49.3019C164.392 49.4304 164.658 49.6071 164.867 49.832C165.085 50.0568 165.254 50.3379 165.375 50.6592C165.488 50.9804 165.552 51.3418 165.552 51.7354ZM164.102 51.7354C164.102 51.3017 164.013 50.9563 163.836 50.7074C163.659 50.4584 163.409 50.3299 163.086 50.3299C162.764 50.3299 162.514 50.4584 162.337 50.7074C162.16 50.9563 162.071 51.3017 162.071 51.7354C162.071 52.1691 162.16 52.5224 162.337 52.7714C162.514 53.0284 162.764 53.1569 163.086 53.1569C163.409 53.1569 163.659 53.0284 163.836 52.7714C164.013 52.5144 164.102 52.1691 164.102 51.7354Z" fill="#78BE20"/>
<path d="M166.398 51.7433C166.398 51.3819 166.455 51.0446 166.576 50.7233C166.697 50.4021 166.866 50.129 167.083 49.8881C167.309 49.6471 167.575 49.4624 167.889 49.3259C168.203 49.1893 168.566 49.1171 168.977 49.1171C169.243 49.1171 169.485 49.1412 169.71 49.1893C169.936 49.2375 170.145 49.3018 170.355 49.3901L170.057 50.5225C169.92 50.4744 169.775 50.4262 169.622 50.386C169.461 50.3459 169.283 50.3298 169.09 50.3298C168.671 50.3298 168.357 50.4583 168.155 50.7153C167.946 50.9723 167.849 51.3176 167.849 51.7433C167.849 52.1931 167.946 52.5384 168.139 52.7874C168.332 53.0364 168.671 53.1568 169.154 53.1568C169.324 53.1568 169.509 53.1408 169.71 53.1086C169.904 53.0765 170.089 53.0283 170.25 52.956L170.452 54.1125C170.282 54.1848 170.081 54.241 169.831 54.2892C169.581 54.3374 169.307 54.3615 169.009 54.3615C168.55 54.3615 168.155 54.2973 167.825 54.1607C167.494 54.0242 167.22 53.8395 167.011 53.6066C166.801 53.3737 166.64 53.0926 166.543 52.7793C166.447 52.4581 166.398 52.1127 166.398 51.7433Z" fill="#78BE20"/>
<path d="M171.153 51.7755C171.153 51.3338 171.217 50.9483 171.354 50.611C171.491 50.2817 171.668 50.0006 171.894 49.7838C172.12 49.5589 172.369 49.3983 172.659 49.2778C172.95 49.1653 173.248 49.1091 173.554 49.1091C174.263 49.1091 174.827 49.326 175.238 49.7597C175.649 50.1934 175.859 50.8278 175.859 51.6711C175.859 51.7514 175.859 51.8398 175.85 51.9442C175.842 52.0406 175.834 52.1289 175.834 52.2092H172.619C172.651 52.4983 172.788 52.7312 173.03 52.8999C173.272 53.0686 173.594 53.1569 174.005 53.1569C174.263 53.1569 174.521 53.1328 174.771 53.0846C175.021 53.0364 175.23 52.9802 175.383 52.9079L175.577 54.0564C175.504 54.0966 175.399 54.1287 175.27 54.1688C175.141 54.209 175.004 54.2411 174.843 54.2652C174.69 54.2973 174.521 54.3134 174.344 54.3375C174.166 54.3536 173.989 54.3696 173.812 54.3696C173.361 54.3696 172.966 54.3054 172.635 54.1688C172.305 54.0323 172.023 53.8556 171.805 53.6227C171.588 53.3898 171.427 53.1167 171.322 52.8035C171.201 52.4903 171.153 52.145 171.153 51.7755ZM174.489 51.2374C174.481 51.117 174.464 50.9965 174.424 50.884C174.392 50.7716 174.336 50.6672 174.263 50.5789C174.191 50.4905 174.094 50.4182 173.989 50.362C173.876 50.3058 173.739 50.2737 173.578 50.2737C173.417 50.2737 173.28 50.2978 173.167 50.354C173.054 50.4102 172.958 50.4825 172.885 50.5708C172.813 50.6592 172.748 50.7636 172.708 50.876C172.668 50.9965 172.635 51.1089 172.619 51.2294H174.489V51.2374Z" fill="#78BE20"/>
<path d="M176.471 53.0765H177.091C177.269 52.8597 177.406 52.5947 177.502 52.2734C177.599 51.9522 177.672 51.6148 177.712 51.2615C177.752 50.9001 177.776 50.5467 177.784 50.1933C177.792 49.8399 177.792 49.5187 177.792 49.2456H181.701V53.0846H182.547V55.6707H181.338V54.2491H177.68V55.6707H176.471V53.0765ZM180.274 53.0765V50.4021H179.114C179.098 50.627 179.09 50.8519 179.074 51.0928C179.058 51.3338 179.025 51.5667 178.985 51.7915C178.945 52.0244 178.888 52.2493 178.816 52.4742C178.743 52.6991 178.655 52.8999 178.542 53.0846H180.274V53.0765Z" fill="#78BE20"/>
<path d="M183.151 51.7433C183.151 51.3819 183.208 51.0446 183.329 50.7233C183.45 50.4021 183.619 50.129 183.836 49.8881C184.062 49.6471 184.328 49.4624 184.642 49.3259C184.956 49.1893 185.319 49.1171 185.73 49.1171C185.996 49.1171 186.238 49.1412 186.463 49.1893C186.689 49.2375 186.898 49.3018 187.108 49.3901L186.81 50.5225C186.673 50.4744 186.528 50.4262 186.375 50.386C186.213 50.3459 186.036 50.3298 185.843 50.3298C185.424 50.3298 185.109 50.4583 184.908 50.7153C184.699 50.9723 184.602 51.3176 184.602 51.7433C184.602 52.1931 184.699 52.5384 184.892 52.7874C185.085 53.0364 185.424 53.1568 185.907 53.1568C186.076 53.1568 186.262 53.1408 186.463 53.1086C186.657 53.0765 186.842 53.0283 187.003 52.956L187.205 54.1125C187.035 54.1848 186.834 54.241 186.584 54.2892C186.334 54.3374 186.06 54.3615 185.762 54.3615C185.303 54.3615 184.908 54.2973 184.578 54.1607C184.247 54.0242 183.973 53.8395 183.764 53.6066C183.554 53.3737 183.393 53.0926 183.296 52.7793C183.2 52.4581 183.151 52.1127 183.151 51.7433Z" fill="#78BE20"/>
<path d="M189.565 50.9884C189.702 50.8519 189.847 50.7073 190.001 50.5547C190.154 50.3941 190.307 50.2415 190.452 50.0889C190.597 49.9363 190.742 49.7837 190.871 49.6392C191 49.4946 191.121 49.3661 191.225 49.2537H192.95C192.821 49.3902 192.668 49.5508 192.482 49.7516C192.297 49.9444 192.096 50.1532 191.886 50.362C191.677 50.5708 191.467 50.7876 191.25 50.9965C191.04 51.2053 190.839 51.39 190.645 51.5506C190.839 51.6952 191.04 51.8799 191.25 52.0967C191.467 52.3136 191.677 52.5465 191.886 52.7874C192.096 53.0364 192.289 53.2854 192.474 53.5343C192.66 53.7914 192.821 54.0243 192.958 54.2491H191.338C191.225 54.0805 191.096 53.8958 190.943 53.711C190.798 53.5263 190.645 53.3416 190.492 53.1569C190.331 52.9722 190.178 52.8035 190.009 52.6429C189.847 52.4822 189.694 52.3457 189.549 52.2333V54.2491H188.131V49.2537H189.549V50.9884H189.565Z" fill="#78BE20"/>
<path d="M198.284 49.2456V54.2411H196.858C196.858 53.9279 196.858 53.6066 196.866 53.2934C196.874 52.9802 196.882 52.691 196.882 52.426C196.89 52.161 196.898 51.9281 196.906 51.7273C196.914 51.5265 196.922 51.3819 196.922 51.2856C196.737 51.5426 196.552 51.8076 196.366 52.0726C196.181 52.3377 196.004 52.6027 195.835 52.8597C195.665 53.1167 195.504 53.3576 195.359 53.5986C195.214 53.8315 195.077 54.0483 194.964 54.2411H193.715V49.2456H195.134C195.134 49.5588 195.134 49.864 195.126 50.1531C195.126 50.4423 195.117 50.6993 195.109 50.9402C195.101 51.1731 195.093 51.3819 195.093 51.5506C195.085 51.7273 195.085 51.8558 195.085 51.9522C195.464 51.398 195.819 50.892 196.141 50.4503C196.463 50.0086 196.777 49.607 197.076 49.2456H198.284Z" fill="#78BE20"/>
<path d="M201 53.4861C201 53.7672 200.911 53.9841 200.726 54.1367C200.549 54.2812 200.339 54.3615 200.114 54.3615C199.888 54.3615 199.679 54.2893 199.501 54.1367C199.324 53.9841 199.227 53.7672 199.227 53.4861C199.227 53.205 199.316 52.9882 199.501 52.8356C199.687 52.683 199.888 52.6107 200.114 52.6107C200.339 52.6107 200.549 52.683 200.726 52.8356C200.903 52.9882 201 53.205 201 53.4861Z" fill="#78BE20"/>
</svg>
