<svg width="250" height="70" viewBox="0 0 250 70" fill="none" xmlns="http://www.w3.org/2000/svg">
<path d="M61.7762 30.9578C61.7762 36.4793 60.2728 41.9004 57.4665 46.6188C57.4665 46.6188 46.7423 50.4337 30.8064 50.4337C14.8705 50.4337 4.24661 46.6188 4.24661 46.6188C-4.3728 31.8613 0.538257 12.8873 15.2714 4.25363C30.0046 -4.38003 48.9473 0.539147 57.5667 15.2967C60.373 20.0151 61.7762 25.4362 61.7762 30.9578Z" fill="#FF8200"/>
<path d="M44.1766 33.588H42.4928L42.4828 12.4254C42.4828 11.9536 42.1019 11.5621 41.6209 11.5621C41.6209 11.5621 25.0535 11.5621 24.6226 11.552C24.1916 11.542 23.8107 11.5821 23.48 11.6825C23.1493 11.7729 22.8786 11.9436 22.6882 12.1745C22.4978 12.4054 22.3976 12.7668 22.3976 13.2486V15.5275C22.3976 16.2905 22.3875 17.1238 22.3575 18.0172C22.3374 18.9107 22.2773 23.3681 22.1971 24.3017C22.1069 25.2354 21.9866 26.1489 21.8163 27.0726C21.6559 27.9861 21.4254 28.8495 21.1447 29.6727C20.8641 30.4959 20.5133 31.2488 20.0824 31.9215C19.7416 32.4636 19.3507 32.9354 18.9097 33.3269C18.7293 33.4876 18.4988 33.588 18.2482 33.6281C17.9676 33.6683 17.7371 33.7486 17.5466 33.8791C17.2861 34.0498 17.1558 34.4212 17.1558 34.9834V42.573V42.583C17.1558 43.0549 17.5366 43.4464 18.0177 43.4464H23.0591C23.5301 43.4464 23.921 43.0549 23.921 42.583V42.573V39.0794H38.2032V42.573V42.583C38.2032 43.0549 38.584 43.4464 39.0651 43.4464H44.1566C44.6276 43.4464 45.0185 43.0549 45.0185 42.583V42.573V34.4714V34.4614C45.0386 33.9694 44.6477 33.588 44.1766 33.588ZM35.7176 33.588H26.1159C26.6171 32.8651 27.028 32.0118 27.3587 31.0079C27.6895 30.004 27.94 28.98 28.1305 27.9259C28.3209 26.8718 28.4512 25.8377 28.5314 24.8338C28.6116 23.8299 28.6517 19.4026 28.6517 18.6497V17.1238H35.7276V33.588H35.7176Z" fill="white"/>
<path d="M5.75 48.8274C15.5721 62.7818 34.8155 66.0947 48.7468 56.2564C51.6534 54.2485 54.159 51.7387 56.1635 48.8274C56.1635 48.8274 43.6353 53.1442 30.9067 53.1442C18.178 53.1442 5.75 48.8274 5.75 48.8274Z" fill="#78BE20"/>
<path d="M30.9068 53.1442C43.6354 53.1442 56.1636 48.8274 56.1636 48.8274C48.7469 54.2485 39.9271 57.2603 30.7063 57.4611C21.686 57.3607 12.8662 54.3489 5.6499 48.9278C5.6499 48.8274 18.1781 53.1442 30.9068 53.1442Z" fill="#97D700"/>
<path d="M116.54 40.013H114.395C114.395 40.013 114.375 12.9374 114.375 12.9274C114.375 12.315 113.884 11.8231 113.272 11.8231C113.272 11.8231 92.0744 11.8231 91.5232 11.813C90.9719 11.803 90.4808 11.8532 90.0599 11.9736C89.6289 12.0941 89.2882 12.3049 89.0376 12.6061C88.787 12.9073 88.6668 13.3691 88.6668 13.9915V16.9029C88.6668 17.8867 88.6467 18.9408 88.6166 20.0853C88.5866 21.2297 88.5164 26.932 88.4062 28.1266C88.2959 29.3213 88.1356 30.4959 87.9251 31.6704C87.7146 32.845 87.424 33.9493 87.0631 35.0034C86.7023 36.0575 86.2513 37.0113 85.7101 37.8847C85.2791 38.5874 84.778 39.1797 84.2067 39.6817C83.9662 39.8925 83.6755 40.023 83.3648 40.0732C83.014 40.1234 82.7133 40.2338 82.4728 40.3945C82.1421 40.6153 81.9717 41.0872 81.9717 41.7999V51.5178V51.5279C81.9717 52.1403 82.4628 52.6322 83.0742 52.6322H89.5287C90.1401 52.6322 90.6312 52.1403 90.6312 51.5279V51.5178V47.0504H108.902V51.5178V51.5279C108.902 52.1403 109.393 52.6322 110.005 52.6322H116.519C117.131 52.6322 117.622 52.1403 117.622 51.5279V51.5178V41.1273V41.1173C117.642 40.5049 117.151 40.013 116.54 40.013ZM105.715 40.013H93.4275C94.0689 39.0894 94.6001 37.9951 95.011 36.7101C95.432 35.4251 95.7627 34.11 96.0033 32.7647C96.2438 31.4195 96.4142 30.0943 96.5144 28.7992C96.6147 27.5042 96.6648 21.8421 96.6648 20.8884V18.9408H105.715V40.013Z" fill="#FF8200"/>
<path d="M174.931 26.942L186.256 14.0919C186.758 13.4896 186.657 12.6864 186.156 12.1845C185.956 11.9837 185.555 11.8833 185.254 11.8833H178.339C177.938 11.8833 177.637 12.0841 177.336 12.3853L165.409 26.3397V13.2888C165.409 12.4856 164.808 11.8833 164.006 11.8833H158.193C157.391 11.8833 156.79 12.4856 156.79 13.2888V46.6187C156.79 47.4219 157.391 48.0242 158.193 48.0242H164.006C164.808 48.0242 165.409 47.4219 165.409 46.6187V37.1819L169.218 32.9655L177.737 47.1207C177.938 47.5223 178.439 47.8234 178.94 47.8234H185.555C186.357 47.8234 186.958 47.2211 186.958 46.418C186.958 46.1168 186.858 45.916 186.758 45.7152L174.931 26.942Z" fill="#FF8200"/>
<path d="M213.929 37.9952C213.528 37.7443 213.017 37.7242 212.596 37.945C209.739 39.4108 206.632 40.1537 203.355 40.1537C197.311 40.1537 192.922 35.7465 192.922 29.6628C192.922 23.4887 197.261 19.1718 203.485 19.1718C206.492 19.1718 209.399 19.9047 212.355 21.4206C212.776 21.6415 213.287 21.6214 213.688 21.3704C214.089 21.1194 214.34 20.6777 214.34 20.2059V14.8048C214.34 14.3129 214.079 13.8611 213.648 13.6202C212.606 13.0279 208.767 11.0903 203.255 11.0903C192.471 11.0903 184.342 19.0815 184.342 29.6728C184.342 40.2641 192.41 48.2552 203.125 48.2552C209.329 48.2552 213.438 46.0266 213.889 45.7655C214.32 45.5246 214.58 45.0728 214.58 44.5809V39.1799C214.58 38.6779 214.33 38.2362 213.929 37.9952Z" fill="#FF8200"/>
<path d="M123.615 11.7829H129.328C130.13 11.7829 130.731 12.3853 130.731 13.1884V30.8573L149.373 11.7829C149.674 11.4817 149.975 11.3813 150.376 11.3813H150.476C151.278 11.3813 151.879 11.9837 151.879 12.7868V46.5184C151.879 47.3215 151.278 47.9238 150.476 47.9238H144.763C144.061 47.9238 143.46 47.3215 143.46 46.5184V28.7491L124.818 47.9238C124.517 48.225 124.217 48.3254 123.816 48.3254H123.716C122.914 48.3254 122.312 47.7231 122.312 46.9199V13.1884C122.312 12.3853 122.914 11.7829 123.615 11.7829Z" fill="#FF8200"/>
<path d="M220.734 11.7829H226.447C227.249 11.7829 227.85 12.3853 227.85 13.1884V30.8573L246.492 11.7829C246.793 11.4817 247.094 11.3813 247.495 11.3813H247.695C248.497 11.3813 249.098 11.9837 249.098 12.7868V46.5184C249.098 47.3215 248.497 47.9238 247.695 47.9238H241.982C241.18 47.9238 240.579 47.3215 240.579 46.5184V28.7491L221.937 47.9238C221.636 48.225 221.336 48.3254 220.935 48.3254H220.834C220.033 48.3254 219.431 47.7231 219.431 46.9199V13.1884C219.331 12.3853 219.932 11.7829 220.734 11.7829Z" fill="#FF8200"/>
<path d="M88.9576 59.5691V67.7912H87.1134V61.1352H84.0566V67.7912H82.2124V59.5691H88.9576Z" fill="#78BE20"/>
<path d="M96.5245 64.6792C96.5245 65.1611 96.4644 65.6028 96.3441 65.9944C96.2238 66.3859 96.0534 66.7272 95.8229 67.0184C95.5924 67.2994 95.3118 67.5203 94.971 67.6809C94.6302 67.8416 94.2393 67.9219 93.7983 67.9219C93.5478 67.9219 93.3273 67.9018 93.1068 67.8516C92.8963 67.8014 92.6858 67.7412 92.4954 67.6508V70H90.7314V61.7779C90.8918 61.7277 91.0722 61.6876 91.2727 61.6374C91.4731 61.5972 91.6936 61.5571 91.9141 61.5269C92.1346 61.4968 92.3651 61.4667 92.6057 61.4466C92.8362 61.4265 93.0567 61.4165 93.2772 61.4165C93.7883 61.4165 94.2494 61.4968 94.6503 61.6474C95.0512 61.798 95.3919 62.0189 95.6726 62.2999C95.9532 62.581 96.1637 62.9224 96.304 63.3239C96.4443 63.7255 96.5245 64.1773 96.5245 64.6792ZM94.7204 64.7194C94.7204 64.1773 94.6002 63.7356 94.3496 63.4043C94.1091 63.073 93.7382 62.9123 93.2571 62.9123C93.0968 62.9123 92.9565 62.9224 92.8161 62.9324C92.6858 62.9425 92.5756 62.9625 92.4854 62.9726V66.165C92.5956 66.2353 92.736 66.2955 92.9164 66.3457C93.0968 66.3959 93.2772 66.416 93.4576 66.416C94.2995 66.416 94.7204 65.8538 94.7204 64.7194Z" fill="#78BE20"/>
<path d="M103.701 64.6693C103.701 65.1612 103.631 65.613 103.49 66.0145C103.35 66.4261 103.139 66.7675 102.879 67.0586C102.608 67.3497 102.287 67.5706 101.917 67.7312C101.546 67.8918 101.125 67.9722 100.654 67.9722C100.193 67.9722 99.7819 67.8918 99.401 67.7312C99.0302 67.5706 98.6994 67.3497 98.4388 67.0586C98.1682 66.7675 97.9578 66.4261 97.8074 66.0145C97.6571 65.6029 97.5869 65.1612 97.5869 64.6693C97.5869 64.1774 97.6671 63.7356 97.8174 63.324C97.9678 62.9225 98.1883 62.5811 98.4589 62.29C98.7295 62.0089 99.0502 61.788 99.4311 61.6274C99.8019 61.4668 100.213 61.3865 100.654 61.3865C101.105 61.3865 101.516 61.4668 101.887 61.6274C102.257 61.788 102.588 62.0089 102.849 62.29C103.119 62.5711 103.33 62.9225 103.48 63.324C103.62 63.7256 103.701 64.1774 103.701 64.6693ZM101.897 64.6693C101.897 64.1272 101.786 63.6955 101.566 63.3843C101.345 63.0731 101.035 62.9124 100.634 62.9124C100.233 62.9124 99.9222 63.0731 99.7017 63.3843C99.4812 63.6955 99.3709 64.1272 99.3709 64.6693C99.3709 65.2114 99.4812 65.6531 99.7017 65.9643C99.9222 66.2856 100.233 66.4462 100.634 66.4462C101.035 66.4462 101.345 66.2856 101.566 65.9643C101.796 65.6431 101.897 65.2114 101.897 64.6693Z" fill="#78BE20"/>
<path d="M104.753 64.6793C104.753 64.2275 104.823 63.8059 104.973 63.4043C105.124 63.0027 105.334 62.6614 105.605 62.3602C105.885 62.0591 106.216 61.8282 106.607 61.6575C106.998 61.4868 107.449 61.3965 107.96 61.3965C108.291 61.3965 108.592 61.4266 108.872 61.4868C109.153 61.5471 109.413 61.6274 109.674 61.7378L109.303 63.1533C109.133 63.0931 108.952 63.0329 108.762 62.9827C108.562 62.9325 108.341 62.9124 108.1 62.9124C107.579 62.9124 107.188 63.073 106.938 63.3943C106.687 63.7155 106.557 64.1472 106.557 64.6793C106.557 65.2415 106.677 65.6732 106.918 65.9844C107.158 66.2956 107.579 66.4462 108.181 66.4462C108.391 66.4462 108.622 66.4261 108.872 66.3859C109.113 66.3458 109.343 66.2855 109.544 66.1952L109.794 67.6408C109.584 67.7312 109.333 67.8015 109.023 67.8617C108.712 67.9219 108.371 67.952 108 67.952C107.429 67.952 106.938 67.8717 106.527 67.7011C106.116 67.5304 105.775 67.2995 105.515 67.0084C105.254 66.7172 105.054 66.3659 104.933 65.9743C104.813 65.5728 104.753 65.1411 104.753 64.6793Z" fill="#78BE20"/>
<path d="M116.119 63.0028H114.124V67.8015H112.36V63.0028H110.366V61.5571H116.109V63.0028H116.119Z" fill="#78BE20"/>
<path d="M123.004 64.6693C123.004 65.1612 122.934 65.613 122.794 66.0145C122.654 66.4261 122.443 66.7675 122.183 67.0586C121.912 67.3497 121.591 67.5706 121.22 67.7312C120.85 67.8918 120.429 67.9722 119.958 67.9722C119.496 67.9722 119.086 67.8918 118.705 67.7312C118.334 67.5706 118.003 67.3497 117.743 67.0586C117.472 66.7675 117.261 66.4261 117.111 66.0145C116.961 65.6029 116.891 65.1612 116.891 64.6693C116.891 64.1774 116.971 63.7356 117.121 63.324C117.271 62.9225 117.492 62.5811 117.763 62.29C118.033 62.0089 118.354 61.788 118.735 61.6274C119.106 61.4668 119.517 61.3865 119.958 61.3865C120.409 61.3865 120.819 61.4668 121.19 61.6274C121.561 61.788 121.892 62.0089 122.152 62.29C122.423 62.5711 122.634 62.9225 122.784 63.324C122.924 63.7256 123.004 64.1774 123.004 64.6693ZM121.2 64.6693C121.2 64.1272 121.09 63.6955 120.87 63.3843C120.649 63.0731 120.338 62.9124 119.937 62.9124C119.537 62.9124 119.226 63.0731 119.005 63.3843C118.785 63.6955 118.675 64.1272 118.675 64.6693C118.675 65.2114 118.785 65.6531 119.005 65.9643C119.226 66.2856 119.537 66.4462 119.937 66.4462C120.338 66.4462 120.649 66.2856 120.87 65.9643C121.09 65.6431 121.2 65.2114 121.2 64.6693Z" fill="#78BE20"/>
<path d="M125.73 66.8577C125.73 67.2091 125.62 67.4801 125.39 67.6709C125.159 67.8616 124.908 67.952 124.628 67.952C124.347 67.952 124.087 67.8616 123.866 67.6709C123.646 67.4801 123.525 67.2091 123.525 66.8577C123.525 66.5063 123.636 66.2353 123.866 66.0445C124.097 65.8538 124.347 65.7634 124.628 65.7634C124.908 65.7634 125.169 65.8538 125.39 66.0445C125.61 66.2353 125.73 66.5063 125.73 66.8577Z" fill="#78BE20"/>
<path d="M132.315 59.479C133.538 59.479 134.48 59.6999 135.132 60.1215C135.783 60.5532 136.114 61.2559 136.114 62.2398C136.114 63.2336 135.783 63.9464 135.121 64.3781C134.46 64.8198 133.508 65.0407 132.275 65.0407H131.694V67.7914H129.85V59.6898C130.251 59.6095 130.681 59.5593 131.133 59.5192C131.584 59.4991 131.974 59.479 132.315 59.479ZM132.435 61.0551C132.305 61.0551 132.165 61.0552 132.035 61.0652C131.904 61.0752 131.794 61.0853 131.694 61.0853V63.4545H132.275C132.917 63.4545 133.398 63.3642 133.718 63.1935C134.039 63.0228 134.209 62.6915 134.209 62.2197C134.209 61.9888 134.169 61.7981 134.089 61.6475C134.009 61.4969 133.889 61.3764 133.728 61.2861C133.578 61.1957 133.388 61.1355 133.167 61.0953C132.947 61.0752 132.696 61.0551 132.435 61.0551Z" fill="#78BE20"/>
<path d="M139.932 65.5828C139.682 65.9542 139.451 66.3256 139.251 66.7071C139.05 67.0786 138.86 67.45 138.68 67.8014H136.875C137.106 67.2894 137.337 66.8176 137.577 66.3859C137.818 65.9542 138.038 65.5928 138.269 65.2816C137.938 65.1109 137.667 64.88 137.477 64.609C137.276 64.3379 137.176 63.9966 137.176 63.585C137.176 62.8923 137.427 62.3501 137.928 61.9787C138.429 61.6072 139.121 61.4165 140.003 61.4165C140.203 61.4165 140.423 61.4265 140.664 61.4366C140.905 61.4567 141.145 61.4767 141.386 61.5069C141.626 61.537 141.847 61.5671 142.067 61.6073C142.288 61.6474 142.468 61.6775 142.618 61.7177V67.7813H140.854V65.5627H139.932V65.5828ZM140.844 62.822C140.764 62.8119 140.644 62.8019 140.474 62.7919C140.313 62.7818 140.163 62.7718 140.043 62.7718C139.612 62.7718 139.311 62.8421 139.151 62.9926C138.99 63.1432 138.91 63.3239 138.91 63.5548C138.91 63.6954 138.94 63.8159 139 63.9162C139.06 64.0166 139.151 64.097 139.251 64.1572C139.351 64.2174 139.471 64.2576 139.592 64.2777C139.722 64.2977 139.842 64.3178 139.972 64.3178H140.824V62.822H140.844Z" fill="#78BE20"/>
<path d="M143.661 66.3458H144.432C144.653 66.0747 144.823 65.7435 144.944 65.3419C145.064 64.9403 145.154 64.5187 145.204 64.077C145.254 63.6252 145.284 63.1835 145.294 62.7417C145.304 62.3 145.304 61.8985 145.304 61.5571H150.165V66.3558H151.218V69.5885H149.714V67.8115H145.164V69.5885H143.661V66.3458ZM148.401 66.3458V63.0028H146.958C146.938 63.2839 146.928 63.565 146.908 63.8661C146.888 64.1673 146.848 64.4584 146.798 64.7395C146.748 65.0307 146.677 65.3118 146.587 65.5929C146.497 65.874 146.387 66.1249 146.246 66.3558H148.401V66.3458Z" fill="#78BE20"/>
<path d="M158.104 64.6693C158.104 65.1612 158.033 65.613 157.893 66.0145C157.753 66.4261 157.542 66.7675 157.282 67.0586C157.011 67.3497 156.69 67.5706 156.32 67.7312C155.949 67.8918 155.528 67.9722 155.057 67.9722C154.596 67.9722 154.185 67.8918 153.804 67.7312C153.433 67.5706 153.102 67.3497 152.842 67.0586C152.571 66.7675 152.361 66.4261 152.21 66.0145C152.06 65.6029 151.99 65.1612 151.99 64.6693C151.99 64.1774 152.07 63.7356 152.22 63.324C152.371 62.9225 152.591 62.5811 152.862 62.29C153.132 62.0089 153.453 61.788 153.834 61.6274C154.205 61.4668 154.616 61.3865 155.057 61.3865C155.508 61.3865 155.919 61.4668 156.289 61.6274C156.66 61.788 156.991 62.0089 157.252 62.29C157.522 62.5711 157.733 62.9225 157.883 63.324C158.033 63.7256 158.104 64.1774 158.104 64.6693ZM156.309 64.6693C156.309 64.1272 156.199 63.6955 155.979 63.3843C155.758 63.0731 155.448 62.9124 155.047 62.9124C154.646 62.9124 154.335 63.0731 154.115 63.3843C153.894 63.6955 153.784 64.1272 153.784 64.6693C153.784 65.2114 153.894 65.6531 154.115 65.9643C154.335 66.2856 154.646 66.4462 155.047 66.4462C155.448 66.4462 155.758 66.2856 155.979 65.9643C156.199 65.6431 156.309 65.2114 156.309 64.6693Z" fill="#78BE20"/>
<path d="M161.21 64.1974C161.19 64.4785 161.18 64.7797 161.16 65.1009C161.14 65.4222 161.13 65.7535 161.12 66.0848C161.11 66.416 161.1 66.7273 161.08 67.0284C161.07 67.3296 161.06 67.5806 161.05 67.8115H159.336C159.356 67.3798 159.376 66.8879 159.416 66.3357C159.456 65.7936 159.496 65.2314 159.536 64.6692C159.576 64.107 159.627 63.5549 159.677 63.0128C159.727 62.4707 159.777 61.9888 159.827 61.5671H161.3C161.641 62.1193 161.952 62.6915 162.242 63.2838C162.533 63.8761 162.824 64.5287 163.145 65.2415C163.475 64.4785 163.806 63.7858 164.117 63.1332C164.437 62.4907 164.718 61.9687 164.969 61.5671H166.462C166.512 61.9988 166.572 62.4807 166.622 63.0128C166.672 63.5549 166.723 64.107 166.763 64.6692C166.803 65.2314 166.843 65.7936 166.873 66.3357C166.903 66.8778 166.923 67.3698 166.943 67.8115H165.189C165.169 67.1891 165.149 66.5767 165.119 65.9643C165.089 65.3519 165.069 64.7596 165.039 64.1974L163.736 67.0786H162.513L161.21 64.1974Z" fill="#78BE20"/>
<path d="M170.19 66.8577C170.19 67.2091 170.08 67.4801 169.85 67.6709C169.629 67.8516 169.368 67.952 169.088 67.952C168.807 67.952 168.547 67.8616 168.326 67.6709C168.106 67.4902 167.985 67.2091 167.985 66.8577C167.985 66.5063 168.096 66.2353 168.326 66.0445C168.547 65.8638 168.807 65.7634 169.088 65.7634C169.368 65.7634 169.629 65.8538 169.85 66.0445C170.08 66.2353 170.19 66.5063 170.19 66.8577Z" fill="#78BE20"/>
<path d="M181.065 59.5693V67.7914H179.221V61.1354H176.164V67.7914H174.32V59.5693H181.065Z" fill="#78BE20"/>
<path d="M188.662 64.6693C188.662 65.1612 188.592 65.613 188.452 66.0145C188.311 66.4261 188.101 66.7675 187.84 67.0586C187.57 67.3497 187.249 67.5706 186.878 67.7312C186.507 67.8918 186.086 67.9722 185.615 67.9722C185.154 67.9722 184.743 67.8918 184.362 67.7312C183.992 67.5706 183.661 67.3497 183.4 67.0586C183.13 66.7675 182.919 66.4261 182.769 66.0145C182.618 65.6029 182.548 65.1612 182.548 64.6693C182.548 64.1774 182.629 63.7356 182.779 63.324C182.929 62.9225 183.15 62.5811 183.42 62.29C183.691 62.0089 184.012 61.788 184.393 61.6274C184.763 61.4668 185.174 61.3865 185.615 61.3865C186.066 61.3865 186.477 61.4668 186.848 61.6274C187.219 61.788 187.55 62.0089 187.81 62.29C188.081 62.5711 188.291 62.9225 188.442 63.324C188.582 63.7256 188.662 64.1774 188.662 64.6693ZM186.858 64.6693C186.858 64.1272 186.748 63.6955 186.527 63.3843C186.307 63.0731 185.996 62.9124 185.595 62.9124C185.194 62.9124 184.884 63.0731 184.663 63.3843C184.443 63.6955 184.332 64.1272 184.332 64.6693C184.332 65.2114 184.443 65.6531 184.663 65.9643C184.884 66.2856 185.194 66.4462 185.595 66.4462C185.996 66.4462 186.307 66.2856 186.527 65.9643C186.748 65.6431 186.858 65.2114 186.858 64.6693Z" fill="#78BE20"/>
<path d="M189.624 63.4546H193.062V65.0609H189.624V63.4546Z" fill="#78BE20"/>
<path d="M194.165 64.6793C194.165 64.2275 194.235 63.8059 194.385 63.4043C194.535 63.0027 194.746 62.6614 195.016 62.3602C195.297 62.0591 195.628 61.8282 196.019 61.6575C196.41 61.4868 196.861 61.3965 197.372 61.3965C197.703 61.3965 198.003 61.4266 198.284 61.4868C198.564 61.5471 198.825 61.6274 199.086 61.7378L198.715 63.1533C198.544 63.0931 198.364 63.0329 198.174 62.9827C197.973 62.9325 197.753 62.9124 197.512 62.9124C196.991 62.9124 196.6 63.073 196.349 63.3943C196.089 63.7155 195.969 64.1472 195.969 64.6793C195.969 65.2415 196.089 65.6732 196.329 65.9844C196.57 66.2956 196.991 66.4462 197.592 66.4462C197.803 66.4462 198.033 66.4261 198.284 66.3859C198.524 66.3458 198.755 66.2855 198.955 66.1952L199.206 67.6408C198.995 67.7312 198.745 67.8015 198.434 67.8617C198.123 67.9219 197.783 67.952 197.412 67.952C196.841 67.952 196.349 67.8717 195.939 67.7011C195.528 67.5304 195.187 67.2995 194.926 67.0084C194.666 66.7172 194.465 66.3659 194.345 65.9743C194.225 65.5728 194.165 65.1411 194.165 64.6793Z" fill="#78BE20"/>
<path d="M205.911 64.6693C205.911 65.1612 205.841 65.613 205.701 66.0145C205.56 66.4261 205.35 66.7675 205.089 67.0586C204.819 67.3497 204.498 67.5706 204.127 67.7312C203.756 67.8918 203.335 67.9722 202.864 67.9722C202.403 67.9722 201.992 67.8918 201.611 67.7312C201.241 67.5706 200.91 67.3497 200.649 67.0586C200.379 66.7675 200.168 66.4261 200.018 66.0145C199.868 65.6029 199.797 65.1612 199.797 64.6693C199.797 64.1774 199.878 63.7356 200.028 63.324C200.178 62.9225 200.399 62.5811 200.669 62.29C200.94 62.0089 201.261 61.788 201.642 61.6274C202.012 61.4668 202.423 61.3865 202.864 61.3865C203.315 61.3865 203.726 61.4668 204.097 61.6274C204.468 61.788 204.799 62.0089 205.059 62.29C205.33 62.5711 205.54 62.9225 205.691 63.324C205.831 63.7256 205.911 64.1774 205.911 64.6693ZM204.107 64.6693C204.107 64.1272 203.997 63.6955 203.776 63.3843C203.556 63.0731 203.245 62.9124 202.844 62.9124C202.443 62.9124 202.133 63.0731 201.912 63.3843C201.692 63.6955 201.581 64.1272 201.581 64.6693C201.581 65.2114 201.692 65.6531 201.912 65.9643C202.133 66.2856 202.443 66.4462 202.844 66.4462C203.245 66.4462 203.556 66.2856 203.776 65.9643C203.997 65.6431 204.107 65.2114 204.107 64.6693Z" fill="#78BE20"/>
<path d="M206.963 64.6793C206.963 64.2275 207.034 63.8059 207.184 63.4043C207.334 63.0027 207.545 62.6614 207.815 62.3602C208.096 62.0591 208.427 61.8282 208.818 61.6575C209.208 61.4868 209.659 61.3965 210.171 61.3965C210.501 61.3965 210.802 61.4266 211.083 61.4868C211.363 61.5471 211.624 61.6274 211.884 61.7378L211.514 63.1533C211.343 63.0931 211.163 63.0329 210.972 62.9827C210.772 62.9325 210.551 62.9124 210.311 62.9124C209.79 62.9124 209.399 63.073 209.148 63.3943C208.888 63.7155 208.767 64.1472 208.767 64.6793C208.767 65.2415 208.888 65.6732 209.128 65.9844C209.369 66.2956 209.79 66.4462 210.391 66.4462C210.602 66.4462 210.832 66.4261 211.083 66.3859C211.323 66.3458 211.554 66.2855 211.754 66.1952L212.005 67.6408C211.794 67.7312 211.544 67.8015 211.233 67.8617C210.922 67.9219 210.582 67.952 210.211 67.952C209.639 67.952 209.148 67.8717 208.737 67.7011C208.326 67.5304 207.986 67.2995 207.725 67.0084C207.465 66.7172 207.264 66.3659 207.144 65.9743C207.024 65.5728 206.963 65.1411 206.963 64.6793Z" fill="#78BE20"/>
<path d="M212.876 64.7195C212.876 64.1673 212.957 63.6854 213.127 63.2638C213.297 62.8522 213.518 62.5008 213.799 62.2298C214.079 61.9487 214.39 61.7479 214.751 61.5973C215.112 61.4567 215.482 61.3865 215.863 61.3865C216.745 61.3865 217.447 61.6575 217.958 62.1996C218.469 62.7418 218.73 63.5348 218.73 64.589C218.73 64.6893 218.73 64.7998 218.72 64.9303C218.71 65.0508 218.7 65.1612 218.7 65.2616H214.701C214.741 65.623 214.911 65.9141 215.212 66.1249C215.512 66.3358 215.913 66.4462 216.424 66.4462C216.745 66.4462 217.066 66.4161 217.377 66.3558C217.687 66.2956 217.948 66.2253 218.138 66.135L218.379 67.5706C218.289 67.6208 218.158 67.6609 217.998 67.7111C217.838 67.7613 217.667 67.8015 217.467 67.8316C217.276 67.8718 217.066 67.8918 216.845 67.922C216.625 67.942 216.404 67.9621 216.184 67.9621C215.623 67.9621 215.132 67.8818 214.721 67.7111C214.31 67.5405 213.959 67.3196 213.688 67.0285C213.418 66.7373 213.217 66.396 213.087 66.0045C212.937 65.6129 212.876 65.1813 212.876 64.7195ZM217.026 64.0468C217.016 63.8963 216.996 63.7457 216.946 63.6051C216.906 63.4646 216.835 63.3341 216.745 63.2236C216.655 63.1132 216.535 63.0229 216.404 62.9526C216.264 62.8823 216.094 62.8421 215.893 62.8421C215.693 62.8421 215.522 62.8723 215.382 62.9425C215.242 63.0128 215.122 63.1032 215.031 63.2136C214.941 63.324 214.861 63.4545 214.811 63.5951C214.761 63.7457 214.721 63.8862 214.701 64.0368H217.026V64.0468Z" fill="#78BE20"/>
<path d="M219.492 66.3458H220.263C220.484 66.0747 220.654 65.7435 220.775 65.3419C220.895 64.9403 220.985 64.5187 221.035 64.077C221.085 63.6252 221.115 63.1835 221.125 62.7417C221.135 62.3 221.135 61.8985 221.135 61.5571H225.996V66.3558H227.049V69.5885H225.545V67.8115H220.995V69.5885H219.492V66.3458ZM224.222 66.3458V63.0028H222.779C222.759 63.2839 222.749 63.565 222.729 63.8661C222.709 64.1673 222.669 64.4584 222.619 64.7395C222.569 65.0307 222.498 65.3118 222.408 65.5929C222.318 65.874 222.208 66.1249 222.067 66.3558H224.222V66.3458Z" fill="#78BE20"/>
<path d="M227.8 64.6793C227.8 64.2275 227.87 63.8059 228.021 63.4043C228.171 63.0027 228.382 62.6614 228.652 62.3602C228.933 62.0591 229.264 61.8282 229.654 61.6575C230.045 61.4868 230.496 61.3965 231.007 61.3965C231.338 61.3965 231.639 61.4266 231.92 61.4868C232.2 61.5471 232.461 61.6274 232.721 61.7378L232.351 63.1533C232.18 63.0931 232 63.0329 231.809 62.9827C231.609 62.9325 231.388 62.9124 231.148 62.9124C230.627 62.9124 230.236 63.073 229.985 63.3943C229.725 63.7155 229.604 64.1472 229.604 64.6793C229.604 65.2415 229.725 65.6732 229.965 65.9844C230.206 66.2956 230.627 66.4462 231.228 66.4462C231.438 66.4462 231.669 66.4261 231.92 66.3859C232.16 66.3458 232.391 66.2855 232.591 66.1952L232.842 67.6408C232.631 67.7312 232.381 67.8015 232.07 67.8617C231.759 67.9219 231.418 67.952 231.048 67.952C230.476 67.952 229.985 67.8717 229.574 67.7011C229.163 67.5304 228.823 67.2995 228.562 67.0084C228.301 66.7172 228.101 66.3659 227.981 65.9743C227.86 65.5728 227.8 65.1411 227.8 64.6793Z" fill="#78BE20"/>
<path d="M235.778 63.7356C235.949 63.5649 236.129 63.3842 236.319 63.1935C236.51 62.9927 236.7 62.802 236.881 62.6112C237.061 62.4205 237.241 62.2297 237.402 62.049C237.562 61.8683 237.713 61.7077 237.843 61.5671H239.988C239.827 61.7378 239.637 61.9386 239.406 62.1896C239.176 62.4305 238.925 62.6915 238.665 62.9525C238.404 63.2136 238.143 63.4846 237.873 63.7456C237.612 64.0066 237.362 64.2376 237.121 64.4383C237.362 64.619 237.612 64.8499 237.873 65.121C238.143 65.3921 238.404 65.6832 238.665 65.9844C238.925 66.2956 239.166 66.6068 239.396 66.918C239.627 67.2393 239.827 67.5304 239.998 67.8115H237.983C237.843 67.6007 237.682 67.3698 237.492 67.1389C237.312 66.908 237.121 66.6771 236.931 66.4462C236.73 66.2153 236.54 66.0044 236.329 65.8037C236.129 65.6029 235.939 65.4322 235.758 65.2917V67.8115H233.994V61.5671H235.758V63.7356H235.778Z" fill="#78BE20"/>
<path d="M246.623 61.5571V67.8015H244.849C244.849 67.41 244.849 67.0084 244.859 66.6169C244.869 66.2253 244.879 65.8639 244.879 65.5326C244.889 65.2013 244.899 64.9102 244.909 64.6592C244.919 64.4083 244.929 64.2275 244.929 64.1071C244.698 64.4283 244.468 64.7596 244.237 65.0909C244.007 65.4222 243.786 65.7535 243.576 66.0747C243.365 66.396 243.165 66.6972 242.985 66.9983C242.804 67.2895 242.634 67.5605 242.493 67.8015H240.94V61.5571H242.704C242.704 61.9487 242.704 62.3301 242.694 62.6915C242.694 63.053 242.684 63.3742 242.674 63.6754C242.664 63.9665 242.654 64.2275 242.654 64.4384C242.644 64.6592 242.644 64.8199 242.644 64.9403C243.115 64.2476 243.556 63.6152 243.957 63.063C244.358 62.5108 244.749 62.0089 245.119 61.5571H246.623Z" fill="#78BE20"/>
<path d="M250 66.8577C250 67.2091 249.89 67.4801 249.66 67.6709C249.439 67.8516 249.179 67.952 248.898 67.952C248.617 67.952 248.357 67.8616 248.136 67.6709C247.916 67.4801 247.795 67.2091 247.795 66.8577C247.795 66.5063 247.906 66.2353 248.136 66.0445C248.367 65.8538 248.617 65.7634 248.898 65.7634C249.179 65.7634 249.439 65.8538 249.66 66.0445C249.88 66.2353 250 66.5063 250 66.8577Z" fill="#78BE20"/>
</svg>
