<svg width="300" height="443" viewBox="0 0 300 443" fill="none" xmlns="http://www.w3.org/2000/svg">
<g filter="url(#filter0_d_44:152)">
<path fillRule="evenodd" clipRule="evenodd" d="M388.979 221.491C388.979 313.518 314.375 387.983 221.824 387.983C196.487 387.983 172.205 382.363 150.739 372.177C146.516 370.069 142.293 367.962 138.422 365.854C122.235 356.37 107.806 344.428 95.4897 330.378C90.9149 325.109 87.044 319.841 83.173 314.221C77.8944 306.493 73.3196 298.415 69.8006 289.985C60.2991 268.91 55.0205 245.727 55.0205 221.491C55.0205 196.904 60.2991 173.722 69.8006 152.647C72.9677 145.973 76.4868 139.299 80.3577 133.328C88.8035 119.981 99.0088 107.687 110.974 97.1497C140.534 71.1574 179.243 55 221.824 55C235.548 55 248.921 56.7562 261.589 59.5662C279.185 63.7812 295.724 70.8061 310.856 80.2898C313.672 82.0461 316.487 84.1536 319.302 85.9098C321.765 87.666 323.877 89.4223 325.988 91.1785C336.897 99.9597 346.751 110.146 355.196 121.035C372.792 144.217 384.405 172.317 387.572 202.875C388.628 209.198 388.979 215.52 388.979 221.491Z" fill="url(#paint0_radial_44:152)"/>
<g opacity="0.5">
<g opacity="0.5">
<path fillRule="evenodd" clipRule="evenodd" d="M387 203.487C386.3 204.533 385.949 205.578 385.599 206.624C384.899 208.367 384.198 209.762 383.148 211.505C382.097 213.248 381.397 215.688 380.696 217.431C378.595 221.963 377.194 226.844 375.793 231.376C374.042 236.605 372.291 241.486 370.19 246.366C369.139 248.458 367.738 250.55 366.688 252.641C365.637 254.733 364.586 256.825 363.536 258.916C360.384 264.146 357.932 269.375 354.43 274.604C348.827 283.668 341.823 292.035 335.169 300.401C331.667 304.585 327.814 308.419 323.962 312.254C319.409 316.438 315.557 321.318 311.004 325.502C307.502 328.639 303.65 332.125 299.797 334.914C297.346 336.309 295.245 338.052 293.143 339.446C290.342 341.189 286.84 342.584 283.688 343.978C273.181 348.859 261.975 351.996 251.118 355.482C240.262 358.968 230.105 363.5 219.249 366.289C216.447 367.684 214.346 367.684 211.895 368.032C209.443 368.381 206.992 369.078 204.54 369.427C199.637 370.124 194.734 371.519 189.481 371.867C185.979 371.867 182.477 371.519 179.325 371.17C174.772 370.821 170.57 371.519 166.017 371.867C161.114 372.216 156.211 371.867 151.308 371.17C147.105 369.078 142.903 366.987 139.051 364.895H139.401C142.203 365.941 145.004 367.335 147.806 368.032C150.958 368.73 154.11 369.078 157.262 369.775C161.464 370.473 165.667 370.473 169.869 369.775C171.97 369.427 174.422 369.078 176.523 368.73C178.975 368.381 181.426 368.73 183.878 368.381C187.38 367.684 190.882 368.381 194.384 368.032C200.338 367.684 206.291 365.592 211.895 364.546C218.198 363.152 224.502 361.06 230.806 360.014C234.658 359.666 237.46 358.271 240.962 357.225C244.114 356.18 245.865 354.785 248.316 352.693C253.219 349.207 258.122 345.373 263.726 342.932C269.329 340.492 275.283 339.097 281.236 337.703C286.139 336.657 291.392 334.565 295.245 331.079C296.996 329.685 298.397 327.942 300.148 326.547C302.249 324.804 304.35 323.061 306.101 320.97C308.203 318.529 310.654 316.438 312.405 313.997C314.506 311.557 316.608 308.419 318.709 305.979C322.211 301.796 327.814 299.704 331.316 295.521C332.017 294.475 332.367 293.429 333.418 292.732C334.118 291.686 335.169 291.337 335.519 290.292C336.219 288.897 337.62 285.76 336.92 284.016C335.519 280.879 327.114 288.897 325.713 290.292C323.612 292.383 321.861 294.126 319.409 295.521C318.008 296.218 316.608 297.264 314.857 297.961C312.055 299.007 309.253 299.007 306.451 299.704C298.747 301.447 290.692 302.144 282.987 303.539C272.481 305.282 261.624 307.374 251.118 309.814C241.312 312.254 231.857 315.043 222.051 317.135C216.797 318.529 211.544 319.575 206.641 320.97C200.338 322.364 194.034 324.456 187.73 325.502C177.224 327.593 166.717 329.685 155.861 330.034C147.456 330.382 139.051 330.731 130.646 330.731C119.439 330.731 107.181 331.777 95.9747 329.336H95.6245C91.0717 324.107 87.2194 318.878 83.3671 313.3C87.5696 315.043 91.7721 316.438 95.9747 317.135C99.1266 317.832 102.629 318.529 105.08 320.272C106.831 321.667 108.582 322.713 110.684 323.41C118.038 325.85 124.342 325.502 131.696 323.41C134.498 322.713 136.949 321.667 139.751 320.97C141.852 320.272 143.603 319.226 145.354 318.529C150.958 317.135 156.911 316.089 162.515 314.695C165.316 313.997 168.118 313.649 170.57 312.603C173.722 311.557 176.173 310.163 179.325 309.117C184.928 307.025 189.831 304.585 195.785 303.539C199.637 302.842 203.84 302.493 206.992 300.75C208.042 300.053 209.793 299.355 209.443 297.961C209.093 296.218 206.992 296.567 205.591 296.915C201.738 297.612 197.886 297.961 194.034 299.007C187.38 300.75 180.726 301.796 173.722 302.144C163.565 302.842 153.059 303.539 142.553 302.842C134.498 302.493 126.093 301.796 118.038 301.796C109.983 301.796 102.278 301.099 94.924 298.658C86.519 295.869 77.7637 293.429 69.7089 288.897C60.2532 267.98 55 244.972 55 220.917C55 196.514 60.2532 173.506 69.7089 152.589C68.6582 155.727 67.6076 158.864 66.557 161.653C64.1055 167.58 62.3544 173.157 62.3544 179.432C62.3544 181.873 62.7046 184.313 62.3544 186.753C62.0042 189.891 61.654 191.634 62.7046 194.771C63.4051 196.863 63.7553 199.303 64.4557 201.395C64.8059 202.092 65.1561 202.441 65.8565 203.138C66.557 203.835 66.557 204.533 67.2574 205.23C68.6582 207.321 70.4093 210.459 72.8608 211.505C74.2616 212.202 76.0127 212.899 77.7637 213.248C79.865 213.945 80.5654 213.945 82.3165 213.248C83.7173 212.899 85.8186 212.202 87.2194 211.853C88.27 211.853 88.9705 212.202 90.0211 212.551C91.0717 212.899 92.4726 212.551 93.5232 212.899C98.4262 213.945 103.329 214.991 108.232 214.991C112.084 214.991 115.937 215.688 120.139 215.688C125.042 215.688 129.595 215.688 134.498 215.34C137.65 214.991 141.152 214.294 144.304 213.945C147.456 213.597 150.958 213.945 154.11 213.945C165.316 213.945 177.224 211.156 187.03 205.23C192.283 202.092 197.886 199.652 203.84 197.909C211.544 195.817 219.249 193.726 226.954 191.982C233.958 190.588 241.312 188.148 247.966 185.359C251.118 183.964 253.57 182.221 256.371 180.478C258.823 178.735 261.624 177.689 263.726 175.946C270.73 171.066 276.684 165.139 282.637 158.864C286.139 155.378 289.641 151.892 293.143 148.754C295.945 145.965 299.097 144.92 302.949 143.874C308.903 142.479 312.405 135.507 315.557 130.975C319.759 124.7 322.911 117.728 323.262 110.407C323.262 107.269 323.262 104.132 322.561 100.994C322.211 99.5998 321.861 98.2054 321.511 97.1595C321.16 96.4623 320.46 95.4165 320.46 94.7192C320.46 94.022 320.11 93.3248 320.11 92.6276C320.11 91.9303 319.759 91.2331 319.409 90.8845C319.059 89.49 318.359 87.3984 318.359 86.0039C320.81 87.747 322.911 89.49 325.013 91.2331C325.013 91.9303 325.013 92.6276 325.013 93.3248C325.013 94.022 324.662 94.7192 324.312 95.4165C323.962 96.4623 323.612 97.1595 323.612 98.554C323.612 99.9485 323.612 100.994 323.962 102.389C324.662 105.526 326.764 108.315 326.764 111.453C326.764 114.939 325.713 117.728 324.662 120.865C323.612 123.654 322.211 126.443 320.81 129.232C319.759 131.324 318.709 132.718 317.658 134.461C316.608 135.856 315.207 137.599 314.156 139.342C313.456 140.736 312.755 142.131 312.055 143.525C311.004 145.965 309.253 147.36 307.152 149.452C303.3 153.286 298.046 156.424 293.844 160.259C290.692 163.048 286.84 166.534 284.388 170.02C283.338 171.763 277.034 176.643 278.435 179.084C279.135 180.13 281.586 179.781 282.637 179.781C285.089 179.781 287.54 179.084 289.641 178.038C295.595 175.249 301.899 172.111 308.203 170.02C311.004 169.323 314.156 168.625 316.958 167.58C320.11 166.185 323.262 164.442 326.413 162.35C328.865 160.956 330.266 158.864 332.017 156.772C333.067 155.727 334.468 155.029 335.519 153.635C336.92 152.241 337.62 150.846 339.021 149.8C342.523 147.011 345.675 143.525 348.477 139.69C350.928 136.204 351.629 132.021 352.679 128.186C353.03 127.14 353.38 126.094 353.38 125.049C353.38 123.654 353.38 122.26 353.38 121.214V120.865C372.291 145.268 383.848 173.157 387 203.487Z" fill="#C7AEB7" style={{"mix-blend-mode":"multiply"}}/>
</g>
<g opacity="0.5">
<path fillRule="evenodd" clipRule="evenodd" d="M311.912 94.6912C311.208 98.5549 310.856 102.067 310.152 105.931C309.449 109.795 309.097 114.01 307.689 117.522C305.226 123.493 304.17 130.167 300.299 135.436C298.54 137.543 297.132 140.002 295.02 142.11C294.317 142.812 293.261 143.163 292.205 143.515C291.501 144.217 290.446 144.92 289.742 145.622C285.519 148.783 280.592 151.945 276.721 155.808C272.498 160.023 268.628 163.887 263.701 167.048C262.293 168.102 260.534 168.804 259.126 169.507C257.718 170.209 256.663 171.263 255.607 171.614C253.847 172.317 252.792 172.668 251.384 173.722C250.328 174.424 248.921 175.478 247.513 175.829C245.05 176.883 242.938 177.937 240.475 178.639C239.419 178.991 238.364 179.342 237.308 179.693C234.141 180.747 232.029 180.747 227.806 181.098C226.399 180.396 227.454 180.396 228.51 180.044C229.214 179.693 229.566 179.342 230.27 178.639C230.974 177.937 232.029 176.532 233.085 176.181C234.845 174.776 237.308 174.424 239.067 173.019C241.531 171.614 243.994 169.507 246.106 168.102C248.217 166.697 249.625 164.589 251.384 162.833C253.144 161.077 255.255 159.321 257.367 157.564C259.478 155.457 261.589 153.35 263.701 151.242C266.164 149.135 267.924 146.676 269.331 143.866C270.035 142.812 271.091 141.758 271.795 140.705C272.498 139.651 273.202 138.597 273.554 137.192C274.258 135.787 274.962 134.382 275.314 132.977C276.018 131.572 276.018 129.465 276.369 128.06C277.425 123.142 278.481 118.225 279.185 113.307C279.889 109.092 279.888 104.877 280.24 100.662C280.24 96.7987 281.648 92.5837 281.648 88.72C281.648 86.9637 281.648 85.91 280.944 84.505C280.24 82.7487 279.185 80.9925 278.481 78.885C276.369 72.9138 272.498 67.2939 267.22 63.4301C266.516 63.0789 264.053 61.6739 261.589 59.5664C279.185 63.7814 295.724 70.8063 310.856 80.29C312.264 85.2075 312.616 90.1249 311.912 94.6912Z" fill="#C7AEB7" style={{"mix-blend-mode":"multiply"}}/>
</g>
<g opacity="0.5">
<path fillRule="evenodd" clipRule="evenodd" d="M263.349 94.6914C262.997 96.7989 261.59 98.5551 261.238 100.311C260.534 102.77 260.182 104.878 259.83 107.336C259.478 110.849 259.83 114.361 259.126 118.225C258.423 124.899 255.959 131.572 253.144 137.895C249.977 143.866 245.05 149.135 239.42 152.647C233.789 156.511 227.103 159.672 220.769 162.482C217.249 164.238 213.379 164.941 209.508 166.346C206.34 167.4 203.525 168.805 200.358 169.858C197.191 170.912 194.376 173.02 191.56 174.073C189.801 174.776 187.689 175.478 185.93 176.181C182.763 177.235 179.596 178.991 176.428 180.396C171.854 182.503 167.279 183.908 162.704 184.962C158.129 186.016 153.554 185.313 148.628 184.611C144.757 184.26 140.534 183.908 136.663 182.855C129.625 181.098 121.883 181.801 114.493 181.801C108.862 181.801 102.528 182.503 97.6014 179.342C96.1938 178.64 94.7862 177.586 93.7305 176.181C92.6747 174.425 92.6747 171.966 92.3228 170.21C91.619 165.995 87.748 163.536 84.9328 160.375C81.4137 156.511 80.358 151.594 79.6542 146.676C78.9504 142.812 78.9504 137.895 80.0061 133.68C88.4519 120.332 98.6571 108.039 110.622 97.5014C107.807 102.77 105.695 108.39 103.232 114.01C99.361 122.089 96.1938 131.221 96.5457 140.354C96.5457 143.866 96.8976 148.081 99.009 151.242C100.417 153.701 102.88 155.457 105.343 156.862C109.214 159.321 113.085 161.78 117.308 163.185C121.883 164.941 126.81 166.697 131.384 168.453C134.2 169.507 136.663 170.561 139.83 170.912C143.349 171.263 147.22 171.263 150.739 170.912C163.76 170.561 175.373 164.59 187.689 161.077C191.56 160.023 195.431 159.321 199.302 157.916C201.766 157.213 203.877 156.16 205.988 154.755C211.267 151.945 217.25 149.837 222.176 146.325C227.103 142.812 231.678 138.597 235.549 134.031C238.716 130.519 239.771 127.006 241.531 122.44C244.346 113.659 245.402 105.229 246.458 96.4476C246.81 92.5839 248.217 89.0714 248.921 85.559C249.625 83.1002 249.273 80.2903 247.162 78.534C243.291 75.0215 237.308 72.9141 232.381 71.5091C229.214 70.8066 226.399 69.7528 223.232 69.7528C220.065 69.7528 216.898 69.7528 213.73 69.7528C210.563 69.7528 207.748 69.0503 204.581 69.0503C201.062 69.0503 197.543 70.1041 194.024 70.4553C190.505 70.8066 186.634 71.1578 183.115 71.8603C178.892 72.5628 174.669 74.3191 170.446 75.724C162.352 78.1828 153.906 82.0465 147.22 87.3152C145.461 88.7202 143.701 89.7739 141.942 90.8277C140.534 91.8814 139.83 92.9352 138.774 94.6914C136.663 98.2039 135.255 101.014 134.2 104.878C133.496 107.688 133.496 110.146 133.496 112.956C133.496 116.469 133.144 120.332 132.44 123.845C131.736 128.762 126.81 136.139 132.088 140.354C133.496 141.407 135.255 141.759 137.367 141.407C139.83 141.056 142.997 140.354 145.461 139.651C152.851 137.544 160.593 135.085 167.983 134.031C170.446 133.68 172.557 134.031 174.669 133.329C176.076 132.977 177.484 132.626 178.892 132.275C182.059 131.572 185.578 129.465 188.041 127.357C189.097 126.304 190.153 125.25 191.56 124.196C193.32 122.791 195.079 122.089 196.839 120.332C198.95 118.225 201.414 116.118 203.525 113.659C207.748 109.093 210.915 103.121 214.786 98.2039C217.249 95.0427 219.713 91.5302 220.417 87.3152C220.769 84.154 217.249 82.749 214.786 81.6953C212.675 80.6415 209.156 80.2903 206.692 80.6415C202.821 81.344 199.654 83.4515 196.135 84.8565C188.393 88.369 179.947 89.0714 173.261 94.3402C170.798 96.4476 170.798 98.2039 170.094 100.663C169.742 101.716 168.686 103.121 168.335 104.526C167.279 106.283 167.279 106.985 167.631 108.741C167.983 110.498 168.686 113.308 170.798 114.01C172.909 114.713 175.725 114.01 177.484 112.956C178.54 112.254 179.244 111.551 180.651 111.2C181.355 110.849 183.115 110.146 183.818 110.498C184.874 110.849 184.17 111.551 183.467 112.254C183.115 112.956 182.763 113.308 182.411 114.01C182.763 114.713 182.763 115.766 182.059 116.118C179.947 118.225 176.076 119.63 173.613 120.332C171.15 121.035 169.39 122.089 166.927 122.089C163.408 122.089 164.815 119.63 164.464 116.82C163.76 113.659 159.889 112.254 159.537 109.093C159.185 105.931 160.241 102.068 161.648 98.9064C162.352 97.5014 163.056 96.4476 163.76 95.3939C165.167 93.2864 166.927 92.2327 169.038 90.8277C175.021 86.964 182.059 85.2077 188.745 82.749C195.431 80.6415 202.469 80.2903 209.156 77.8315C213.73 76.0753 218.305 75.724 222.88 75.0215C227.103 74.3191 230.974 76.0753 232.733 79.939C234.493 84.154 236.956 88.369 235.549 92.9352C233.789 99.2576 231.678 105.229 228.51 111.2C224.288 118.225 219.361 124.899 212.323 128.411C207.044 131.221 201.414 132.626 196.135 134.734C191.912 136.49 187.689 137.544 183.467 138.246C176.78 139.3 170.446 143.164 163.76 144.92C154.61 147.379 145.461 149.135 135.959 150.189C132.44 150.54 129.625 150.891 126.106 150.54C124.698 150.189 122.939 150.54 121.531 149.837C120.475 149.486 119.42 148.784 118.364 148.432C114.845 147.027 111.326 144.217 111.678 140.002C112.03 135.787 113.437 131.572 114.493 127.709C115.197 124.899 115.197 122.44 115.901 119.63C116.252 117.523 116.956 115.415 117.308 113.308C117.66 111.551 118.364 109.795 119.42 108.39C121.531 105.58 122.939 102.419 125.05 99.9601C125.754 98.9064 126.81 98.2039 127.513 96.7989C128.217 95.7452 128.217 95.0427 129.273 93.9889C129.977 92.9352 130.681 91.8814 131.384 91.1789C132.792 89.7739 134.903 88.369 136.663 87.3152C140.534 84.5052 145.109 81.6953 149.332 79.939C153.554 78.1828 158.481 76.7778 162.704 75.3728C166.927 73.9678 170.446 71.8603 174.669 70.1041C179.244 68.3478 184.17 67.2941 188.745 66.5916C198.598 65.5379 208.1 64.4841 217.953 64.4841C230.27 64.4841 243.642 59.9179 255.255 65.8891C258.423 67.6453 260.182 69.4016 261.59 72.5628C263.701 77.129 264.757 82.749 264.405 88.0177C263.701 90.4764 263.701 92.5839 263.349 94.6914Z" fill="#C7AEB7" style={{"mix-blend-mode":"multiply"}}/>
</g>
</g>
<g opacity="0.63">
<g opacity="0.63">
<path fillRule="evenodd" clipRule="evenodd" d="M74.7273 147.378C75.4311 149.485 76.8388 151.593 77.5426 153.7C78.2464 155.457 78.5983 156.862 79.654 158.267C80.7097 159.672 81.0616 161.428 82.1174 162.833C83.1731 164.589 83.8769 166.345 84.2288 168.102C84.5807 169.507 84.5807 170.912 84.9326 172.317C85.2845 174.073 85.9883 175.829 86.3402 177.585C86.6921 178.639 87.3959 179.693 87.7479 180.747C88.4517 181.8 89.1555 183.557 90.2112 184.259C93.3783 186.718 98.305 185.664 102.176 185.313C105.695 184.961 109.214 184.961 112.733 184.61C114.493 184.259 116.604 184.259 118.364 184.61C120.123 184.61 121.883 184.961 123.642 185.313C125.05 185.664 126.458 185.664 128.217 186.015C130.328 186.366 132.44 187.069 134.551 187.069C137.015 187.42 139.478 187.771 141.941 187.771C145.46 187.771 148.98 187.42 152.499 187.771C155.666 188.123 158.481 188.474 161.648 188.474C165.519 188.474 169.742 187.42 173.261 186.015C179.243 183.908 185.578 181.8 191.912 179.693C194.023 178.99 196.135 177.585 198.246 176.18C200.006 175.127 202.117 174.424 203.877 173.019C207.044 170.912 211.267 169.507 215.138 168.453C219.009 167.75 222.88 166.345 226.751 165.292C229.214 164.589 231.677 163.535 234.493 163.184C234.141 165.292 229.566 165.994 228.158 166.345C224.639 167.75 220.416 168.453 216.897 169.858C214.434 170.912 213.026 173.019 211.267 174.424C209.507 175.829 208.452 177.585 206.34 178.99C204.229 180.395 202.469 181.098 200.006 181.449C195.079 182.503 190.153 184.259 185.226 185.313C180.299 186.366 175.372 187.42 170.798 189.528C168.686 190.581 165.167 191.986 165.167 193.743C165.167 195.148 166.927 194.796 167.982 194.796C170.094 194.796 173.261 194.094 175.021 195.148C176.78 195.85 177.836 196.553 179.595 196.904C183.114 197.606 187.337 196.904 190.856 195.85C195.431 194.094 200.71 193.04 205.636 191.986C209.155 191.284 212.323 190.23 215.842 189.528C218.657 188.825 221.12 188.825 223.936 188.474C227.806 188.123 231.677 187.771 235.548 187.069C238.716 186.718 241.883 186.366 244.698 184.961C247.161 183.908 249.625 183.205 251.736 181.449C252.44 181.098 255.255 178.288 256.311 178.99C257.719 180.395 249.273 185.313 248.569 185.664C245.754 187.42 242.938 188.825 239.771 189.879C235.9 191.635 231.677 192.338 227.806 193.04C223.232 194.094 218.305 195.148 213.73 196.201C209.155 197.255 204.229 197.958 199.654 199.363C197.191 200.065 195.079 200.768 192.968 202.173C190.856 203.226 188.745 203.929 186.985 204.983C182.763 207.441 178.54 210.603 173.965 212.008C170.094 213.413 165.871 214.466 161.648 214.818C156.018 215.169 150.387 214.466 145.109 213.764C139.478 213.061 133.848 212.71 128.217 212.71C122.938 212.71 117.66 213.764 112.381 214.115C108.862 214.115 105.695 213.061 102.528 211.656C98.6569 210.251 95.4898 208.495 92.3226 206.388C89.5074 204.631 85.9883 203.578 82.4693 203.578C81.7654 203.578 81.0616 203.929 80.3578 203.929C79.3021 204.28 78.9502 203.578 77.8945 203.226C74.7273 201.821 71.5602 199.363 70.1525 196.201C68.393 192.689 67.6892 189.176 67.3373 185.313C66.9854 183.205 67.3373 181.098 67.3373 178.99C67.3373 176.18 66.9854 173.37 66.9854 170.56C66.9854 165.994 66.6335 161.428 68.0411 156.862C69.4487 152.647 72.264 148.783 74.7273 145.271C76.1349 143.163 77.1907 141.056 78.9502 139.299C79.3021 140.353 78.2464 142.461 77.8945 143.514C76.1349 145.973 75.4311 148.783 74.7273 147.378Z" fill="#C7AEB7" style={{"mix-blend-mode":"soft-light"}}/>
</g>
<g opacity="0.63">
<path fillRule="evenodd" clipRule="evenodd" d="M286.927 171.965C285.519 173.722 283.056 175.829 282.704 178.288C282.352 180.395 284.815 180.044 286.575 180.044C290.094 179.342 293.613 179.342 296.78 177.937C298.54 177.234 300.651 176.18 302.411 175.127C304.17 174.424 305.578 174.073 307.337 173.37C311.208 171.614 315.079 170.912 318.95 169.155C322.469 167.75 325.285 165.292 327.748 162.482C329.507 160.726 331.267 159.321 332.675 156.862C333.73 155.106 334.786 153.349 335.49 151.593C336.546 149.486 336.897 146.324 337.249 144.217C337.249 142.812 337.601 141.407 337.249 140.002C336.897 136.841 333.73 136.489 330.915 136.841C327.748 137.192 324.933 139.299 322.469 141.407C320.006 143.514 318.246 145.973 315.431 147.378C312.616 149.134 309.801 150.891 306.634 152.998C305.226 154.052 303.818 155.106 302.411 156.159C301.355 157.213 300.299 158.267 299.244 159.321C298.188 160.374 296.78 161.077 295.373 162.131C294.317 162.833 293.261 163.887 292.205 164.238C290.798 164.94 289.39 165.994 288.334 167.048C287.631 167.75 286.575 168.453 286.223 169.507C286.223 171.614 286.223 173.722 286.927 171.965Z" fill="#C7AEB7" style={{"mix-blend-mode":"soft-light"}}/>
</g>
<g opacity="0.63">
<path fillRule="evenodd" clipRule="evenodd" d="M185.577 190.933C186.281 189.177 186.633 189.177 188.041 188.474C189.097 188.123 189.8 187.772 191.208 187.42C192.616 187.42 194.023 186.718 195.431 187.069C197.542 187.772 197.19 189.528 195.783 190.933C195.079 191.635 194.375 191.987 193.671 191.987C192.616 192.338 191.56 192.338 190.504 192.338C188.745 192.338 186.985 192.338 185.577 191.284C184.874 191.284 185.226 190.933 185.577 190.933Z" fill="#C7AEB7" style={{"mix-blend-mode":"soft-light"}}/>
</g>
<g opacity="0.63">
<path fillRule="evenodd" clipRule="evenodd" d="M107.455 308.249C112.733 310.357 118.364 311.059 123.994 311.059C130.68 311.059 137.367 311.059 144.053 310.357C148.628 310.006 152.851 310.006 157.425 309.303C159.537 308.952 161.648 308.952 163.76 308.952C164.815 308.952 166.223 308.249 167.631 308.601C172.205 310.006 164.112 312.816 163.056 313.167C159.537 314.923 156.018 315.274 152.499 316.328C151.091 316.679 149.683 317.031 148.276 317.733C146.868 318.084 145.812 318.787 144.405 319.138C138.774 320.192 133.496 320.894 127.865 321.948C125.754 322.299 123.642 322.651 121.531 322.299C119.419 321.948 117.308 320.543 115.197 319.489C112.733 318.436 110.27 317.382 108.158 315.626C107.103 314.923 105.695 313.869 104.991 313.167C104.288 312.464 104.288 312.113 103.936 311.411C103.232 310.006 103.584 309.303 104.639 308.249C105.695 307.547 106.751 307.196 107.807 307.547C108.158 308.249 108.158 308.249 107.455 308.249Z" fill="#C7AEB7" style={{"mix-blend-mode":"soft-light"}}/>
</g>
<g opacity="0.63">
<path fillRule="evenodd" clipRule="evenodd" d="M248.921 363.396C246.105 364.098 243.642 365.152 241.179 366.908C240.123 367.61 238.715 369.015 240.475 369.718C242.586 371.123 246.105 370.42 248.217 370.069C252.088 369.718 255.959 369.015 259.83 368.664C262.293 368.313 265.108 367.962 267.572 367.61C271.091 366.908 274.258 365.854 277.425 364.801C279.888 364.098 282 363.044 284.463 361.639C286.575 360.234 289.038 359.181 291.149 357.424C293.965 355.317 297.484 353.561 298.54 349.697C299.243 346.887 292.909 347.941 291.853 347.941C287.279 348.643 282.352 350.048 277.777 351.453C275.666 352.156 273.554 352.507 271.795 353.561C269.331 354.614 266.868 356.019 264.053 357.073C262.645 357.424 261.589 358.478 260.534 358.829C259.478 359.181 258.422 359.532 257.366 359.883C255.959 360.234 254.903 360.937 253.496 361.288C249.976 362.342 247.161 363.044 248.921 363.396Z" fill="#C7AEB7" style={{"mix-blend-mode":"soft-light"}}/>
</g>
<g opacity="0.63">
<path fillRule="evenodd" clipRule="evenodd" d="M317.191 302.629C316.135 303.332 314.727 304.034 313.671 304.386C312.616 304.737 311.912 304.737 310.856 304.737C308.041 305.088 305.226 305.439 302.059 305.791C298.54 306.142 294.669 306.493 291.149 306.844C284.815 307.196 277.777 307.898 271.795 310.006C266.516 311.762 261.589 313.869 256.663 316.328C252.44 318.436 248.217 320.894 244.698 324.056C243.29 325.109 242.235 326.163 241.179 327.568C240.475 328.271 239.771 329.324 239.067 330.027C238.364 331.432 239.067 332.485 240.475 333.539C242.586 334.944 245.05 334.944 247.513 335.295C251.032 335.647 254.551 336.349 258.07 336.7C261.589 337.403 265.46 337.754 268.979 337.754C272.85 337.754 276.721 337.754 280.24 336.349C282.704 335.295 285.167 334.242 287.63 332.837C290.094 331.432 292.205 330.027 294.317 328.622C295.724 327.568 297.484 326.514 298.891 325.461C299.595 324.758 299.947 324.407 300.651 323.704C301.707 323.002 302.41 321.948 303.466 320.894C305.578 319.138 307.689 316.679 309.449 314.572C310.856 312.816 312.616 311.411 313.671 309.654C314.375 308.601 315.431 307.898 315.783 306.844C316.487 306.493 317.191 304.034 317.191 302.629Z" fill="#C7AEB7" style={{"mix-blend-mode":"soft-light"}}/>
</g>
<g opacity="0.63">
<path fillRule="evenodd" clipRule="evenodd" d="M176.78 99.2573C174.669 100.662 173.613 101.716 172.909 104.526C172.557 105.58 172.205 107.687 172.909 108.741C174.317 110.146 178.54 108.741 179.947 108.039C182.762 106.985 185.578 105.229 188.745 104.526C194.375 103.121 200.71 102.77 205.284 99.2573C208.1 97.1499 210.211 94.6911 212.323 91.8811C213.378 90.1249 215.138 88.7199 215.138 86.2612C215.49 81.695 209.155 81.3437 205.988 82.0462C199.654 83.4512 192.968 85.5587 186.985 88.3687C183.466 90.1249 178.891 92.2324 176.428 95.3936C175.724 96.0961 175.372 97.5011 175.02 98.2036C175.02 99.2573 174.317 101.365 176.78 99.2573Z" fill="#C7AEB7" style={{"mix-blend-mode":"soft-light"}}/>
</g>
<g opacity="0.63">
<path fillRule="evenodd" clipRule="evenodd" d="M188.745 112.253C188.041 110.497 187.689 110.497 188.745 109.443C189.801 108.741 191.208 107.687 192.264 107.336C193.32 106.633 195.431 106.282 196.839 106.282C200.006 106.633 198.598 110.146 197.543 112.253C196.839 113.307 196.487 114.361 195.431 115.063C194.023 115.766 193.32 116.117 191.912 115.766C190.856 115.415 190.153 114.712 189.449 114.01C188.745 113.658 187.689 112.605 187.689 111.902H188.041L188.745 112.253Z" fill="#C7AEB7" style={{"mix-blend-mode":"soft-light"}}/>
</g>
<g opacity="0.63">
<path fillRule="evenodd" clipRule="evenodd" d="M165.871 152.295C165.871 150.891 165.871 150.539 166.927 149.486C168.335 148.081 170.446 147.027 172.205 145.973C176.076 143.514 180.299 141.758 184.522 140.353C188.393 138.948 192.264 138.246 196.487 137.543C199.654 137.192 202.469 136.138 205.285 135.787C209.859 135.084 215.49 132.977 219.361 137.192C222.176 140.704 216.898 145.271 214.082 147.378C211.619 149.134 209.508 149.837 206.692 150.539C203.525 151.242 200.358 152.296 197.191 152.998C191.208 154.403 185.578 157.213 179.947 159.672C176.076 161.077 173.261 161.077 169.742 158.618C167.631 157.213 164.112 154.052 165.871 152.295Z" fill="#C7AEB7" style={{"mix-blend-mode":"soft-light"}}/>
</g>
<g opacity="0.63">
<path fillRule="evenodd" clipRule="evenodd" d="M220.064 125.952C219.361 127.357 217.249 129.816 219.713 130.869C221.12 131.221 222.176 130.167 223.232 129.464C224.287 128.411 225.695 127.708 226.399 126.303C227.103 124.898 226.751 123.493 225.343 122.791C222.528 121.386 221.12 124.196 219.361 126.303L220.064 125.952Z" fill="#C7AEB7" style={{"mix-blend-mode":"soft-light"}}/>
</g>
<g opacity="0.63">
<path fillRule="evenodd" clipRule="evenodd" d="M265.46 97.5008C262.997 100.311 261.237 103.121 261.589 106.984C261.941 110.848 264.405 111.551 267.572 109.794C268.276 109.443 269.683 109.092 270.387 108.389C271.443 107.687 271.795 106.633 272.498 105.579C273.906 103.472 274.61 101.716 274.61 98.9057C274.61 96.447 274.962 93.9883 274.258 91.8808C273.906 90.4758 273.554 89.0708 272.147 88.0171C270.739 87.3146 269.683 88.3683 268.979 89.0708C267.924 89.7733 267.22 90.1246 266.516 91.1783C265.46 92.9345 264.757 95.3933 264.053 97.1495L265.46 97.5008Z" fill="#C7AEB7" style={{"mix-blend-mode":"soft-light"}}/>
</g>
<g opacity="0.63">
<path fillRule="evenodd" clipRule="evenodd" d="M213.026 177.585C213.026 175.829 213.026 175.829 214.434 174.775C215.49 174.073 216.194 173.37 217.249 172.668C219.009 171.614 221.824 170.911 223.584 170.56C225.343 170.56 227.103 170.56 228.862 171.263C229.918 171.965 229.918 173.019 229.918 174.073C229.566 175.829 227.807 176.883 226.751 177.936C225.343 178.99 223.936 180.395 222.176 180.746C220.065 181.097 218.305 181.449 216.194 181.097C215.138 180.746 212.675 180.395 212.675 178.639L213.026 177.585Z" fill="#C7AEB7" style={{"mix-blend-mode":"soft-light"}}/>
</g>
<g opacity="0.63">
<path fillRule="evenodd" clipRule="evenodd" d="M235.9 161.077C236.956 159.32 237.66 157.915 239.419 156.862C240.123 156.51 242.235 155.105 242.938 155.105C243.642 155.105 244.346 155.808 244.698 156.51C244.698 157.213 243.994 158.267 243.642 158.969C242.587 160.374 241.179 161.779 239.771 162.482C239.068 162.833 238.364 162.833 237.308 162.833C236.604 162.482 236.252 161.779 235.548 161.428L235.9 161.077Z" fill="#C7AEB7" style={{"mix-blend-mode":"soft-light"}}/>
</g>
<g opacity="0.63">
<path fillRule="evenodd" clipRule="evenodd" d="M145.109 92.5835C142.997 94.691 140.886 97.1498 140.182 100.311C139.83 101.365 139.83 102.418 140.886 103.121C141.941 104.175 143.701 103.472 145.109 103.121C148.98 101.716 152.851 99.2572 156.37 97.1498C159.537 95.0423 163.76 94.3398 166.223 91.5298C167.631 89.7736 169.038 88.0173 167.631 85.9098C166.575 84.1536 163.76 83.0999 161.648 83.0999C158.833 83.0999 156.018 83.8024 153.554 85.2073C148.98 87.6661 146.164 91.1785 145.109 92.5835Z" fill="#C7AEB7" style={{"mix-blend-mode":"soft-light"}}/>
</g>
<g opacity="0.63">
<path fillRule="evenodd" clipRule="evenodd" d="M132.088 82.7485C136.663 82.046 140.182 80.9923 144.053 78.5335C144.757 78.1823 145.46 77.831 146.516 77.4798C147.22 77.1286 147.22 76.4261 147.924 76.0748C147.572 74.3186 142.645 75.3723 141.589 75.7236C140.182 76.4261 138.774 77.1285 137.015 77.831C136.311 78.1823 135.607 78.5335 134.903 78.8848C133.496 79.9385 132.44 81.6948 131.736 83.0998L132.088 82.7485Z" fill="#C7AEB7" style={{"mix-blend-mode":"soft-light"}}/>
</g>
</g>
<g opacity="0.47">
<g opacity="0.47">
<path fillRule="evenodd" clipRule="evenodd" d="M268.98 180.396C267.572 181.098 266.516 182.152 265.109 182.503C262.997 183.557 260.886 184.611 258.774 185.665C256.311 186.718 253.496 187.421 250.681 188.475C246.81 189.88 243.291 191.284 239.772 193.392C236.252 195.499 233.085 198.661 231.326 202.173C230.27 204.281 229.918 207.091 230.974 209.198C231.678 210.603 232.733 211.657 234.141 212.359C236.252 213.413 238.716 212.711 240.827 212.359C243.642 211.657 246.458 210.954 249.273 209.549C250.681 208.847 252.088 208.144 253.496 207.091C254.903 206.388 256.663 205.686 258.071 204.983C259.126 204.632 260.534 203.929 261.59 203.578C263.349 203.227 264.405 202.173 265.813 201.471C268.276 199.714 270.387 197.256 271.795 194.797C273.555 191.284 274.61 187.772 273.906 183.908C273.555 181.098 271.443 179.693 268.98 180.396Z" fill="#C7AEB7" style={{"mix-blend-mode":"multiply"}}/>
</g>
<g opacity="0.47">
<path fillRule="evenodd" clipRule="evenodd" d="M226.751 201.822C226.047 200.768 225.343 200.768 223.936 200.768C222.88 200.768 221.824 201.119 220.768 201.47C215.49 202.524 210.211 203.227 205.285 204.28C202.469 204.983 199.654 205.685 197.191 207.09C194.727 208.495 191.912 209.9 189.449 211.305C183.466 214.818 177.484 217.628 170.798 219.033C166.575 219.735 162.352 220.789 158.481 221.491C156.018 221.843 153.554 222.194 151.091 222.896C148.628 223.599 146.164 224.301 143.701 224.653C139.126 225.706 134.903 226.76 130.329 228.516C126.106 230.273 121.531 231.678 118.012 235.19C116.252 236.946 114.141 239.405 114.141 241.864C114.141 243.62 114.845 245.376 115.9 247.133C119.419 252.752 126.106 256.265 131.736 259.075C139.83 262.939 149.331 263.641 157.777 264.695C169.038 266.1 180.651 265.397 191.912 262.939C196.839 261.885 202.117 260.831 207.044 260.129C213.027 259.075 219.361 258.021 225.343 256.967C230.27 255.914 235.197 254.86 240.123 253.455C242.939 252.752 245.402 251.699 247.865 250.645C249.977 249.591 252.088 248.186 254.2 247.133C255.959 246.079 257.719 245.025 259.478 243.971C260.886 242.918 261.941 241.513 262.997 240.108C264.757 237.649 265.812 235.19 267.22 232.731C268.276 230.975 269.331 229.219 270.387 227.814C271.443 226.058 272.851 224.653 274.258 223.248C277.073 220.086 280.241 217.276 282.704 214.115C284.112 212.359 285.519 209.9 285.871 207.442C285.871 205.685 285.871 203.929 284.112 203.227C282.352 202.524 280.592 202.524 278.833 202.524C277.073 202.875 275.314 203.578 273.554 203.929C270.387 204.983 267.572 206.037 264.757 207.442C257.719 211.305 250.68 215.871 242.587 217.628C239.068 217.628 235.548 217.979 232.381 216.574C229.918 215.52 227.807 214.466 225.695 213.061C222.88 210.954 223.936 208.847 224.991 206.037C225.695 204.632 227.103 202.173 226.751 201.822Z" fill="#C7AEB7" style={{"mix-blend-mode":"multiply"}}/>
</g>
<g opacity="0.47">
<path fillRule="evenodd" clipRule="evenodd" d="M333.027 262.938C330.211 264.343 328.1 266.1 325.637 267.856C323.525 269.261 321.062 270.666 318.599 271.72C312.264 274.881 305.93 276.637 299.244 277.691C290.446 279.096 281.648 280.501 273.555 282.96C267.22 285.067 260.886 287.175 254.552 289.633C248.569 291.741 241.883 293.146 236.604 296.658C235.197 297.361 233.437 298.766 234.141 300.522C234.845 303.332 240.475 303.332 242.587 303.683C248.921 304.034 254.904 303.683 261.238 303.683C264.053 303.683 267.22 303.683 270.036 303.683C273.906 304.034 277.074 304.034 280.945 303.683C285.519 303.332 290.446 303.332 295.021 301.927C303.467 299.117 312.264 295.956 320.71 292.794C328.1 289.985 339.361 283.662 338.657 274.178C338.305 270.315 335.842 264.695 333.027 262.938Z" fill="#C7AEB7" style={{"mix-blend-mode":"multiply"}}/>
</g>
<g opacity="0.47">
<path fillRule="evenodd" clipRule="evenodd" d="M75.0794 277.691C74.3756 280.501 74.0237 283.311 75.4313 286.121C77.5427 289.985 81.7656 292.795 85.6366 293.849C88.0999 294.551 90.5633 294.902 93.3785 294.902C96.1938 294.902 99.3609 295.605 102.176 295.605C106.751 295.605 110.974 295.956 115.197 296.659C117.66 297.01 120.123 297.712 122.235 298.064C123.994 298.415 125.754 298.415 127.865 299.117C131.736 300.171 135.607 300.171 139.478 300.522C143.701 301.225 147.924 300.874 152.147 300.171C155.666 299.469 159.537 299.117 161.296 295.605C162.704 292.795 161.648 291.39 159.185 289.634C157.074 287.877 153.554 287.175 151.091 286.472C147.22 285.067 143.349 284.014 139.478 282.96C133.848 281.555 128.569 279.799 123.291 278.042C112.03 274.881 101.472 270.315 89.8595 269.261C84.9328 268.91 79.3023 268.91 74.7275 271.018C73.3199 271.72 72.2642 273.125 71.5603 274.53C70.8565 276.989 71.9122 278.394 75.0794 277.691Z" fill="#C7AEB7" style={{"mix-blend-mode":"multiply"}}/>
</g>
<g opacity="0.47">
<path fillRule="evenodd" clipRule="evenodd" d="M74.3756 257.319C75.0794 259.426 74.7275 260.129 76.839 260.48C78.2466 260.831 79.3023 261.182 80.7099 260.831C82.4695 260.48 84.229 259.075 84.5809 257.67C84.9328 255.914 83.1733 254.509 81.7656 253.455C78.5985 251.699 76.1351 252.05 74.7275 255.211V257.319H74.3756Z" fill="#C7AEB7" style={{"mix-blend-mode":"multiply"}}/>
</g>
<g opacity="0.47">
<path fillRule="evenodd" clipRule="evenodd" d="M205.285 120.332C205.285 118.927 205.285 118.225 205.988 117.171C206.692 115.766 207.396 114.361 208.1 113.307C208.804 112.605 209.156 111.551 209.508 110.497C210.211 109.092 211.267 108.038 211.619 106.633C212.323 104.877 213.73 103.472 215.138 102.067C215.842 101.013 216.546 100.311 217.249 98.9059C217.601 97.8521 218.305 97.1497 219.009 96.4472C219.713 95.3934 220.065 93.9884 220.769 92.9347C221.472 91.5297 222.176 90.4759 222.88 89.071C223.584 88.3685 223.936 87.3147 224.64 86.6122C225.343 86.261 226.047 85.2072 226.399 85.2072C227.807 84.5047 228.51 85.2072 229.566 86.6122C230.622 88.7197 231.326 91.8809 231.326 94.3397C231.326 97.1496 230.622 99.9596 229.918 102.418C229.214 104.175 228.159 105.931 227.103 107.687C225.343 110.848 223.232 114.01 220.769 116.82C219.361 118.576 217.249 119.981 215.49 121.386C214.434 122.439 213.379 122.791 211.971 123.142C211.267 123.493 210.211 123.844 209.508 123.844C208.804 123.844 208.1 123.142 207.396 122.791C205.637 122.439 204.581 121.034 205.285 120.332Z" fill="#C7AEB7" style={{"mix-blend-mode":"multiply"}}/>
</g>
<g opacity="0.47">
<path fillRule="evenodd" clipRule="evenodd" d="M198.246 122.791C197.191 123.493 196.135 123.844 195.431 124.898C195.431 125.249 195.079 125.952 195.431 126.303C196.135 127.708 199.302 125.952 200.006 125.249C200.71 124.547 201.413 123.493 200.71 122.439C200.006 121.737 198.95 121.386 198.246 122.088V122.791Z" fill="#C7AEB7" style={{"mix-blend-mode":"multiply"}}/>
</g>
<g opacity="0.47">
<path fillRule="evenodd" clipRule="evenodd" d="M253.144 78.5337C252.44 78.885 251.736 79.2362 251.032 79.9387C250.681 80.29 250.681 80.9925 250.329 81.3437C249.625 83.4512 248.921 85.2074 248.921 87.3149C248.569 89.4224 248.569 92.9349 251.032 93.6374C255.607 95.3936 262.293 91.8812 262.997 86.6124C263.349 83.8025 261.59 80.9925 259.83 78.5337C259.126 77.48 258.071 76.075 257.015 75.3725C256.311 74.67 255.255 74.3188 254.2 74.67C252.792 75.3725 251.736 77.1288 253.144 78.5337Z" fill="#C7AEB7" style={{"mix-blend-mode":"multiply"}}/>
</g>
<g opacity="0.47">
<path fillRule="evenodd" clipRule="evenodd" d="M252.44 104.175C252.44 103.121 252.44 102.77 253.144 102.419C253.496 102.068 254.2 101.365 254.552 101.365C255.607 101.014 256.311 101.716 256.311 102.77C256.311 103.473 256.311 105.229 255.607 105.58C255.255 105.931 252.088 105.58 252.44 104.175Z" fill="#C7AEB7" style={{"mix-blend-mode":"multiply"}}/>
</g>
<g opacity="0.47">
<path fillRule="evenodd" clipRule="evenodd" d="M286.223 83.1C285.871 85.2075 285.871 86.9637 285.519 89.0712C284.815 92.2324 284.463 95.7449 284.463 98.9061C284.463 100.662 284.463 102.419 284.463 103.824C284.463 105.931 284.112 108.039 284.112 110.146C284.463 112.956 284.815 115.766 286.575 117.874C287.983 119.278 289.742 118.927 291.15 118.225C292.557 117.874 293.613 116.469 295.021 115.766C296.076 115.064 296.78 114.361 297.836 113.659C301.707 110.146 304.874 106.282 306.282 101.365C307.337 97.8524 308.393 93.6374 307.689 89.7737C306.985 87.315 306.282 85.2075 304.522 83.4512C303.115 82.0462 301.707 80.9925 300.299 80.29C298.892 79.5875 297.484 79.5875 296.076 79.2363C294.669 78.885 293.613 78.885 292.205 78.885C291.15 78.885 289.742 78.885 288.686 79.2363C285.871 79.5875 285.519 82.7487 286.223 83.1Z" fill="#C7AEB7" style={{"mix-blend-mode":"multiply"}}/>
</g>
<g opacity="0.47">
<path fillRule="evenodd" clipRule="evenodd" d="M290.094 123.142C290.446 121.737 291.502 120.332 292.909 121.035C293.965 121.386 294.669 123.142 293.965 124.196C293.613 124.898 292.557 125.601 291.502 125.25C290.798 125.25 290.446 124.547 290.094 124.196C289.39 123.493 290.094 122.791 290.094 122.088V123.142Z" fill="#C7AEB7" style={{"mix-blend-mode":"multiply"}}/>
</g>
<g opacity="0.47">
<path fillRule="evenodd" clipRule="evenodd" d="M294.317 156.51C292.909 156.51 291.854 156.862 290.798 157.213C290.798 157.564 290.446 157.564 290.446 157.915C290.094 158.267 289.39 158.618 289.39 158.969C290.798 159.672 293.261 158.618 294.669 157.915C295.373 157.564 296.076 157.213 296.78 156.51C297.132 156.159 297.836 155.808 297.836 155.457C298.188 154.403 297.836 154.052 296.78 154.052C295.725 154.052 293.613 154.754 293.613 155.808L294.317 156.51Z" fill="#C7AEB7" style={{"mix-blend-mode":"multiply"}}/>
</g>
<g opacity="0.47">
<path fillRule="evenodd" clipRule="evenodd" d="M155.666 324.407C155.666 322.651 156.722 321.948 158.129 320.895C160.944 318.436 164.464 317.031 167.983 315.977C171.15 314.923 174.669 314.221 177.836 315.275C179.244 315.626 181.003 316.328 181.707 317.733C182.763 320.192 179.947 324.056 178.188 325.11C175.725 326.866 172.205 327.217 169.038 328.271C166.575 328.973 163.408 329.325 160.944 328.973C159.889 328.973 158.833 328.973 158.129 328.271C157.425 327.92 156.37 327.92 155.314 327.568C154.61 327.217 153.554 326.515 153.554 325.461C153.554 325.11 153.554 324.407 153.906 324.056C153.906 323.353 154.962 323.353 155.666 324.407Z" fill="#C7AEB7" style={{"mix-blend-mode":"multiply"}}/>
</g>
</g>
<path fillRule="evenodd" clipRule="evenodd" d="M229.566 279.447C229.566 279.096 229.918 278.394 230.622 278.042C230.974 277.691 231.325 278.042 231.677 278.042C232.733 278.042 233.437 278.394 233.085 279.447C232.733 279.799 232.029 280.501 231.325 280.501C230.622 280.501 229.566 280.501 229.918 279.799L229.566 279.447Z" fill="#C7ADFF" style={{"mix-blend-mode":"soft-light"}}/>
<path fillRule="evenodd" clipRule="evenodd" d="M287.278 79.2362C286.927 80.29 286.927 81.3437 287.63 81.695C288.334 82.0462 289.39 81.695 289.742 81.3437C290.446 80.6412 291.501 79.2362 291.501 78.1825C291.501 77.1288 290.446 75.7238 289.39 75.7238C287.278 75.3725 286.223 78.885 285.871 80.29L287.278 79.2362Z" fill="#C7ADFF" style={{"mix-blend-mode":"soft-light"}}/>
<path fillRule="evenodd" clipRule="evenodd" d="M282.704 268.559C282 269.613 282 270.666 282 271.72C282 272.423 282 273.476 283.056 273.476C285.167 274.179 287.278 269.964 287.982 268.91C288.334 267.856 288.686 266.803 288.686 265.749C288.686 265.047 288.334 263.993 287.278 263.642C286.223 263.29 285.167 263.993 284.463 264.695C282.704 266.452 283.056 268.208 282 269.964L282.704 268.559Z" fill="#C7ADFF" style={{"mix-blend-mode":"soft-light"}}/>
<path fillRule="evenodd" clipRule="evenodd" d="M281.296 268.207C280.944 268.207 279.888 268.559 279.537 268.559C279.185 268.559 278.833 268.91 278.833 269.261C278.833 269.612 278.833 269.964 279.185 269.964C279.185 269.964 279.537 270.315 279.888 269.964C280.24 269.964 280.24 269.612 280.592 269.612C280.944 269.261 280.944 268.91 281.296 268.91C281.296 268.91 281.648 268.91 281.296 268.207C281.648 268.207 281.648 268.207 281.296 268.207Z" fill="#C7ADFF" style={{"mix-blend-mode":"soft-light"}}/>
<path fillRule="evenodd" clipRule="evenodd" d="M278.833 278.042C279.185 278.042 279.185 278.042 279.537 278.394C279.537 278.745 279.537 278.745 279.185 279.096C278.833 279.096 278.481 279.447 278.129 279.096C277.777 279.096 277.777 278.745 277.777 278.745C278.129 278.042 278.481 278.042 278.833 278.042Z" fill="#C7ADFF" style={{"mix-blend-mode":"soft-light"}}/>
<path fillRule="evenodd" clipRule="evenodd" d="M242.587 285.77C242.587 286.121 242.587 286.121 242.938 286.472C243.29 286.472 243.994 286.472 244.346 286.121C244.698 285.77 245.402 284.716 245.05 284.365C244.698 284.014 243.994 284.014 243.642 284.365C243.29 284.716 242.938 284.716 242.938 285.067C242.587 285.067 242.587 285.419 242.587 285.77Z" fill="#C7ADFF" style={{"mix-blend-mode":"soft-light"}}/>
<path fillRule="evenodd" clipRule="evenodd" d="M204.229 223.95C204.229 224.302 203.877 224.302 203.877 224.653C203.877 225.004 203.877 225.355 203.877 225.707C204.229 226.409 205.284 226.76 205.988 227.112C206.692 227.112 207.044 227.112 207.748 226.76C208.452 226.409 208.804 225.707 208.804 225.004C208.804 224.302 208.804 223.599 208.1 223.248C207.396 222.897 206.692 222.545 205.988 222.194C205.284 222.194 204.933 222.194 204.581 222.545C204.229 222.897 203.877 223.599 204.229 223.95Z" fill="#C7ADFF" style={{"mix-blend-mode":"soft-light"}}/>
<path fillRule="evenodd" clipRule="evenodd" d="M209.859 226.409C209.859 226.057 209.859 226.057 210.211 226.057C210.563 226.057 210.915 226.409 211.267 226.409L211.619 227.111C211.619 227.462 211.267 227.462 211.267 227.462C210.915 227.814 210.563 227.814 210.563 227.462C210.211 227.462 209.859 227.111 209.859 226.76V226.409Z" fill="#C7ADFF" style={{"mix-blend-mode":"soft-light"}}/>
<path fillRule="evenodd" clipRule="evenodd" d="M102.176 204.632C100.416 202.524 99.7126 199.714 100.065 196.904C100.065 195.85 100.065 193.743 101.824 193.743C103.936 194.094 105.343 197.255 105.695 199.012C106.751 201.47 107.455 204.28 107.103 206.739C106.751 210.603 101.824 202.875 101.12 202.173L102.176 204.632Z" fill="#C7ADFF" style={{"mix-blend-mode":"soft-light"}}/>
<path fillRule="evenodd" clipRule="evenodd" d="M106.751 191.987C106.399 194.094 107.454 197.256 109.566 197.958C110.27 198.309 110.622 197.607 111.325 196.904C111.677 196.202 112.029 195.148 111.677 194.446C111.325 193.743 110.974 193.392 110.622 192.689C110.27 192.338 110.27 191.987 109.918 191.636C109.918 191.284 109.918 190.933 109.566 190.582C108.862 189.879 106.399 189.177 106.751 190.933V191.987Z" fill="#C7ADFF" style={{"mix-blend-mode":"soft-light"}}/>
<path fillRule="evenodd" clipRule="evenodd" d="M131.032 347.238C131.736 345.833 132.44 344.78 133.847 343.726C134.903 343.023 137.015 341.97 138.422 341.618C139.83 341.267 141.941 341.267 142.997 341.97C144.405 342.672 145.812 343.726 147.22 344.78C148.627 345.482 149.683 346.185 150.739 347.238C151.795 348.292 152.498 349.346 152.85 350.751C153.554 352.858 154.258 355.668 153.202 357.776C152.498 359.532 151.443 359.532 149.331 359.532C146.868 359.532 144.405 357.425 142.645 355.317C141.941 354.263 141.237 353.561 140.182 352.507C139.126 351.453 137.718 350.751 136.663 350.048C135.607 349.346 134.199 348.643 133.144 347.941C132.792 347.59 131.384 346.536 131.032 347.238Z" fill="#C7ADFF" style={{"mix-blend-mode":"soft-light"}}/>
<path fillRule="evenodd" clipRule="evenodd" d="M175.724 230.273C175.724 231.326 175.372 231.678 176.076 232.029C176.428 232.38 177.132 232.38 177.484 232.029C177.836 231.678 179.243 230.624 178.891 229.921C178.54 228.516 175.372 228.516 175.724 230.273Z" fill="#C7ADFF" style={{"mix-blend-mode":"soft-light"}}/>
<path fillRule="evenodd" clipRule="evenodd" d="M240.827 274.53C240.123 272.071 242.938 268.207 245.754 266.1C249.976 262.939 256.311 262.587 261.237 262.939C265.108 263.641 268.627 265.397 269.331 268.559C269.683 269.261 269.331 269.964 269.683 271.017C269.683 271.72 270.035 272.071 268.979 272.422C266.868 273.476 263.349 274.53 260.886 274.881C258.07 275.232 255.255 275.935 252.792 275.583C250.328 275.583 248.217 275.232 246.106 275.232C245.05 275.232 243.994 275.232 242.938 274.881C242.235 274.881 240.827 274.881 240.827 274.53Z" fill="#C7ADFF" style={{"mix-blend-mode":"soft-light"}}/>
<path fillRule="evenodd" clipRule="evenodd" d="M262.645 258.724C262.997 259.075 262.997 259.426 263.701 259.426C264.405 259.426 265.109 259.075 265.461 259.075C266.164 258.724 266.868 258.021 266.516 257.319C265.812 256.265 262.293 256.968 262.645 258.021V258.724Z" fill="#C7ADFF" style={{"mix-blend-mode":"soft-light"}}/>
</g>
<defs>
<filter id="filter0_d_44:152" x="0" y="0" width="443.979" height="442.983" filterUnits="userSpaceOnUse" color-interpolation-filters="sRGB">
<feFlood flood-opacity="0" result="BackgroundImageFix"/>
<feColorMatrix in="SourceAlpha" type="matrix" values="0 0 0 0 0 0 0 0 0 0 0 0 0 0 0 0 0 0 127 0" result="hardAlpha"/>
<feOffset/>
<feGaussianBlur stdDeviation="27.5"/>
<feComposite in2="hardAlpha" operator="out"/>
<feColorMatrix type="matrix" values="0 0 0 0 0.511933 0 0 0 0 0.443333 0 0 0 0 0.933333 0 0 0 0.6 0"/>
<feBlend mode="normal" in2="BackgroundImageFix" result="effect1_dropShadow_44:152"/>
<feBlend mode="normal" in="SourceGraphic" in2="effect1_dropShadow_44:152" result="shape"/>
</filter>
<radialGradient id="paint0_radial_44:152" cx="0" cy="0" r="1" gradientUnits="userSpaceOnUse" gradientTransform="translate(186.356 167.133) scale(229.573 229.143)">
<stop stop-color="#9D61FF"/>
<stop offset="0.8436" stop-color="#4E1A8C"/>
<stop offset="0.9478" stop-color="#413A7B"/>
<stop offset="0.9972" stop-color="#9C3DD7"/>
</radialGradient>
</defs>
</svg>
