<svg width="32" height="32" viewBox="0 0 32 32" fill="none" xmlns="http://www.w3.org/2000/svg">
<g clip-path="url(#clip0)">
<path fill-rule="evenodd" clip-rule="evenodd" d="M29.8085 23.6478C31.2467 21.2245 32.0036 18.4615 32 15.6477C31.9999 13.2214 31.4372 10.8278 30.3556 8.65279C29.274 6.4778 27.7026 4.58 25.7635 3.10681C23.8244 1.63362 21.5698 0.624708 19.1749 0.158446C16.78 -0.307815 14.3092 -0.218872 11.9544 0.418367C9.59968 1.0556 7.4244 2.22398 5.59755 3.83274C3.7707 5.44149 2.34148 7.44731 1.42091 9.69437C0.500333 11.9414 0.113195 14.3693 0.289563 16.7892C0.465932 19.2092 1.20106 21.5562 2.43784 23.6478C2.43784 23.6478 7.96797 25.5876 16.1231 25.5876C24.2783 25.5876 29.8085 23.6478 29.8085 23.6478ZM13.5761 16.9908H18.4789V8.64268H14.8676V9.41539C14.8676 9.79549 14.8478 12.0396 14.8074 12.5508C14.7674 13.0618 14.6997 13.585 14.6046 14.1203C14.5102 14.65 14.3783 15.1724 14.2097 15.6836C14.0632 16.1475 13.8498 16.5878 13.5761 16.9908ZM23.1064 17.1191C23.1888 17.201 23.2352 17.3121 23.2355 17.428H23.2399V17.4333V21.5378V21.544C23.2397 21.6598 23.1933 21.7708 23.1108 21.8526C23.0284 21.9344 22.9167 21.9803 22.8002 21.9803H20.1976C20.1399 21.9804 20.0827 21.9692 20.0293 21.9474C19.976 21.9255 19.9275 21.8934 19.8867 21.8528C19.8458 21.8123 19.8134 21.7642 19.7913 21.7112C19.7692 21.6582 19.7578 21.6014 19.7578 21.544V21.5378V20.7874V19.7728H12.466V21.5413V21.5476C12.466 21.6633 12.4197 21.7743 12.3374 21.8561C12.2551 21.9379 12.1435 21.9839 12.0271 21.9839H9.44963C9.33324 21.9839 9.22161 21.9379 9.13931 21.8561C9.05701 21.7743 9.01077 21.6633 9.01077 21.5476V21.5413V17.6921C9.01077 17.4074 9.07629 17.2227 9.20911 17.1335C9.31149 17.0687 9.42648 17.0261 9.54656 17.0086C9.68596 16.9872 9.81637 16.9269 9.92259 16.8346C10.1467 16.6316 10.341 16.3982 10.4997 16.1413C10.7221 15.7825 10.9028 15.3996 11.0381 15.0001C11.1862 14.5696 11.3008 14.1284 11.381 13.6804C11.4644 13.2165 11.529 12.7498 11.573 12.2778C11.6055 11.9294 11.6291 10.6071 11.6443 9.75662C11.6497 9.45494 11.6541 9.21262 11.6574 9.09417C11.6693 8.64268 11.6753 8.22272 11.6753 7.83429V6.68148C11.6753 6.43521 11.7247 6.25318 11.8243 6.13362C11.9304 6.01099 12.0721 5.92403 12.2299 5.88468C12.4211 5.83484 12.6185 5.8129 12.816 5.81954C13.034 5.8249 13.2638 5.8249 13.5025 5.8249H13.5025H21.4926C21.5503 5.8249 21.6074 5.83621 21.6607 5.8582C21.714 5.88018 21.7625 5.9124 21.8032 5.95301C21.844 5.99362 21.8763 6.04182 21.8983 6.09486C21.9203 6.1479 21.9316 6.20473 21.9314 6.26211C21.9319 6.26387 21.9319 6.2657 21.9314 6.26746V7.01786V16.9908H22.7957C22.9123 16.991 23.024 17.0371 23.1064 17.1191Z" fill="#FF8403"/>
<path d="M3.16406 24.7587C4.62914 26.8212 6.57085 28.5039 8.82594 29.6653C11.081 30.8267 13.5836 31.4329 16.1233 31.4329C18.663 31.4329 21.1656 30.8267 23.4207 29.6653C25.6758 28.5039 27.6175 26.8212 29.0826 24.7587L29.0682 24.7632L29.0458 24.7703L29.0135 24.781L28.9722 24.7944L28.9237 24.8105L28.8663 24.8292L28.7999 24.8506L28.7245 24.8747L28.6419 24.9006L28.5522 24.9282L28.4535 24.9586L28.3476 24.9907L28.2336 25.0246L28.1124 25.0612L27.9841 25.0987L27.8495 25.137L27.7068 25.1772L27.5578 25.2191L27.4017 25.2619L27.2392 25.3066L27.0705 25.3521L26.8955 25.3994L26.716 25.4466L26.5284 25.4948L26.3364 25.5439L26.1371 25.5939L25.9334 25.6438L25.7234 25.6947L25.5089 25.7456L25.2899 25.7964L25.0656 25.8482L24.8358 25.899L24.6025 25.9499C24.5235 25.9677 24.4436 25.9838 24.3629 26.0007L24.1107 26.0516L23.863 26.1025L23.6126 26.1515L23.3577 26.2006C23.268 26.2176 23.1854 26.2336 23.0983 26.2488L22.8363 26.2961L22.5671 26.3425L22.2978 26.3889L22.0286 26.4335L21.7531 26.4763L21.4749 26.5183L21.1931 26.5593L20.9095 26.5986L20.6232 26.636L20.3351 26.6717L20.0434 26.7065L19.7508 26.7387C19.653 26.7485 19.5543 26.7592 19.4556 26.7681L19.1585 26.7958L18.8606 26.8216L18.5608 26.8448L18.2593 26.8662C18.1588 26.8734 18.0582 26.8796 17.9568 26.885C17.8563 26.8912 17.7549 26.8966 17.6535 26.901L17.3492 26.9144C17.2469 26.9144 17.1464 26.9225 17.0441 26.9251C16.9427 26.9251 16.8404 26.9305 16.739 26.9332H16.432L16.1233 26.9439C9.58267 26.9439 3.16406 24.7578 3.16406 24.7578V24.7587Z" fill="#FF8403"/>
</g>
<defs>
<clipPath id="clip0">
<rect width="32" height="32" fill="white"/>
</clipPath>
</defs>
</svg>
