<svg width="25" height="25" viewBox="0 0 25 25" fill="none" xmlns="http://www.w3.org/2000/svg">
<g clip-path="url(#clip0_130_4857)">
<path d="M12.5 11.6441C9.47911 11.6441 7.00608 9.09863 7.00608 5.95168C7.00608 2.80474 9.47911 0.259252 12.5 0.259252C15.5208 0.259252 17.9939 2.80474 17.9939 5.95168C17.9939 9.09863 15.5208 11.6441 12.5 11.6441ZM12.5 1.52517C10.1273 1.52517 8.21245 3.51894 8.21245 5.95168C8.21245 8.38443 10.1273 10.3782 12.5 10.3782C14.8727 10.3782 16.7875 8.38443 16.7875 5.95168C16.7875 3.51894 14.8727 1.52517 12.5 1.52517Z" fill="#FFD700" stroke="#FFD700" stroke-width="0.519481"/>
<path d="M21.1298 23.4731H21.3895V23.2133V19.9397C21.3895 17.671 19.6033 15.8112 17.39 15.8112H7.60936C5.39519 15.8112 3.60987 17.6719 3.60987 19.9397V23.2133H3.8688V23.4731H3.86961H4.12935H21.1298ZM21.9931 24.7398H3.00628C2.68139 24.7398 2.40268 24.4644 2.40268 24.1065V19.9397C2.40268 16.9568 4.74707 14.5444 7.60936 14.5444H17.3908C20.2531 14.5444 22.5975 16.9568 22.5975 19.9397V24.106C22.5969 24.4644 22.3179 24.7398 21.9931 24.7398Z" fill="#FFD700" stroke="#FFD700" stroke-width="0.519481"/>
</g>
<defs>
<clipPath id="clip0_130_4857">
<rect width="25" height="25" fill="white" transform="translate(0 -0.000488281)"/>
</clipPath>
</defs>
</svg>
